<?xml version="1.0" encoding="UTF-8"?>
<svg version="1.1" xmlns="http://www.w3.org/2000/svg" width="289" height="289">
<path d="M0 0 C2.69397397 5.0886175 2.64660046 9.5625054 1.6875 15.1875 C-4.84891804 32.7973792 -17.08369119 44.55840959 -33.7578125 52.6796875 C-40.76511894 55.65201748 -47.48074903 57.7124446 -55.0625 58.5 C-55.86381348 58.58483643 -56.66512695 58.66967285 -57.49072266 58.75708008 C-67.69913761 59.64173065 -79.25986247 59.29451204 -89.13671875 56.34375 C-91.4971278 55.93107992 -91.4971278 55.93107992 -93.55859375 57.92578125 C-102.23535532 68.11826944 -108.55507934 77.72469034 -110.3125 91.1875 C-108.77156172 90.61210013 -107.23070928 90.03646975 -105.69018555 89.45996094 C-104.28969921 88.93612375 -102.88880649 88.41337198 -101.48754883 87.89160156 C-97.29607952 86.32562772 -93.12157748 84.72438903 -88.9609375 83.078125 C-88.05432373 82.72298828 -87.14770996 82.36785156 -86.21362305 82.00195312 C-84.45150926 81.3107416 -82.69234491 80.61194553 -80.93676758 79.90429688 C-67.94033765 74.83522311 -53.73611296 72.78210484 -40.5859375 78.33984375 C-31.11055047 83.05143427 -24.04145426 90.18208808 -20.3125 100.1875 C-16.32801879 112.27087235 -17.30876462 125.54341874 -22.3125 137.1875 C-26.55732215 145.0842307 -32.1250443 151.80180431 -39.3125 157.1875 C-21.6216449 148.34207245 -0.42802899 132.63124468 8.02734375 114.29296875 C9.73501924 108.84659543 9.50963232 103.96330581 7.125 98.8125 C4.19272464 95.654665 1.52826033 94.10788016 -2.3125 92.1875 C-2.3125 90.8675 -2.3125 89.5475 -2.3125 88.1875 C9.21308846 89.10222924 18.95064411 92.15644637 27.125 100.75 C31.33472749 107.31717489 31.38276496 113.56632642 30.6875 121.1875 C25.46262433 143.90578851 0.50618083 161.54747448 -18.06518555 173.32666016 C-20.14199097 174.62299211 -22.22591821 175.90698033 -24.3125 177.1875 C-25.39273438 177.86167969 -26.47296875 178.53585938 -27.5859375 179.23046875 C-68.06890722 203.47027161 -125.34273261 223.65595507 -173.015625 213.171875 C-177.6033611 211.80207702 -181.41633594 209.94944741 -185.3125 207.1875 C-186.7046875 206.259375 -186.7046875 206.259375 -188.125 205.3125 C-192.40185266 201.15784313 -195.44056256 195.81157044 -195.625 189.8125 C-195.46909394 178.99261953 -190.87494074 170.51958768 -184.3125 162.1875 C-183.3225 162.5175 -182.3325 162.8475 -181.3125 163.1875 C-181.43109375 164.20070312 -181.5496875 165.21390625 -181.671875 166.2578125 C-181.80326578 167.60926056 -181.93340796 168.96083042 -182.0625 170.3125 C-182.18431641 171.31023437 -182.18431641 171.31023437 -182.30859375 172.328125 C-182.6374897 176.05561247 -182.33980778 178.13352248 -180.640625 181.4921875 C-178.29914953 184.20295608 -176.50989728 185.62779401 -173.3125 187.1875 C-172.466875 187.620625 -171.62125 188.05375 -170.75 188.5 C-168.35584149 189.41847955 -168.35584149 189.41847955 -166.1875 188.5 C-164.29192527 187.25640981 -164.29192527 187.25640981 -162.82421875 185.68359375 C-161.04196656 183.91976277 -159.42666107 183.23642617 -157.125 182.25 C-141.75112007 174.76594115 -126.89312224 162.22629255 -120.3125 146.1875 C-118.64119678 139.88069539 -119.44552053 133.57647179 -120.3125 127.1875 C-119.02279297 127.13142578 -119.02279297 127.13142578 -117.70703125 127.07421875 C-110.26706123 126.66043634 -103.36027065 125.70828697 -96.15234375 123.80859375 C-93.43535293 123.2143688 -91.08185488 123.07062814 -88.3125 123.1875 C-83.79431499 133.42871936 -84.40332023 145.6608933 -88.12402344 156.10717773 C-92.77786945 167.83710886 -100.24468498 176.58777867 -109.3125 185.1875 C-98.15148644 182.729089 -87.66459695 179.30199844 -77.05419922 175.0690918 C-74.65848627 174.11342623 -72.25759951 173.17182571 -69.85546875 172.23242188 C-68.30698121 171.62318432 -66.75879251 171.01318654 -65.2109375 170.40234375 C-64.50464203 170.12414291 -63.79834656 169.84594208 -63.07064819 169.55931091 C-56.2011092 167.14420113 -56.2011092 167.14420113 -50.3125 163.1875 C-51.04855469 163.23390625 -51.78460938 163.2803125 -52.54296875 163.328125 C-60.58251244 163.62549253 -60.58251244 163.62549253 -64.4375 161.3125 C-67.72538834 157.58622655 -67.70901215 154.62970293 -67.66015625 149.79296875 C-67.10858422 145.65927727 -65.20304622 143.10173922 -62.3125 140.1875 C-61.466875 139.548125 -60.62125 138.90875 -59.75 138.25 C-55.69549425 134.81926436 -53.96662926 130.14988777 -52.3125 125.1875 C-52.16752877 123.0240832 -52.09179825 120.85557069 -52.0625 118.6875 C-52.03671875 117.5428125 -52.0109375 116.398125 -51.984375 115.21875 C-52.04422008 112.24202117 -52.04422008 112.24202117 -53.58911133 110.49731445 C-55.46954078 108.7928669 -55.46954078 108.7928669 -59.21484375 109.19921875 C-65.44328955 110.12889385 -71.0828186 112.62196092 -76.875 115 C-110.30862882 128.24675567 -110.30862882 128.24675567 -125.3125 122.1875 C-133.60049951 118.16562204 -138.23442993 112.33864377 -141.6875 103.875 C-145.10108125 93.53469346 -143.72247235 81.41741706 -140.3125 71.1875 C-141.02535156 71.31769531 -141.73820312 71.44789062 -142.47265625 71.58203125 C-150.24172217 72.70086039 -150.24172217 72.70086039 -153.49609375 71.140625 C-155.14526165 69.87803624 -156.7332119 68.53647526 -158.3125 67.1875 C-159.3025 67.1875 -160.2925 67.1875 -161.3125 67.1875 C-162.767776 64.27694799 -162.76317148 62.40658202 -162.3125 59.1875 C-159.5 57 -159.5 57 -156.3125 55.1875 C-155.84062256 54.66494629 -155.36874512 54.14239258 -154.88256836 53.60400391 C-152.85575205 51.77542542 -151.70384112 51.78182916 -149.00390625 51.7109375 C-147.75963867 51.66453125 -147.75963867 51.66453125 -146.49023438 51.6171875 C-145.62720703 51.59914062 -144.76417969 51.58109375 -143.875 51.5625 C-142.1678614 51.51127304 -140.46081912 51.45670295 -138.75390625 51.3984375 C-137.99795166 51.38087402 -137.24199707 51.36331055 -136.46313477 51.34521484 C-134.24719088 51.18271062 -132.4034981 50.9487099 -130.3125 50.1875 C-128.04924754 47.20986957 -128.04924754 47.20986957 -126.3125 44.1875 C-142.28056626 43.58619207 -154.53277753 44.53403984 -167.3125 55.1875 C-168.99797068 56.83514806 -170.66918078 58.49780846 -172.3125 60.1875 C-171.26449219 60.86296875 -170.21648437 61.5384375 -169.13671875 62.234375 C-167.75756914 63.13504413 -166.37867629 64.03610651 -165 64.9375 C-163.96456055 65.60265625 -163.96456055 65.60265625 -162.90820312 66.28125 C-155.09056012 71.41747922 -155.09056012 71.41747922 -153.65307617 76.53515625 C-152.58549413 84.84928623 -159.9160133 94.40667381 -163.80322266 101.57519531 C-164.81666025 103.44517643 -165.82099872 105.31983346 -166.82421875 107.1953125 C-174.93686626 122.27041084 -174.93686626 122.27041084 -179.3125 125.1875 C-187.19332482 126.38315116 -191.56295593 123.03531768 -197.875 118.625 C-199.91497283 117.24551424 -201.95534936 115.86662534 -203.99609375 114.48828125 C-205.03749512 113.77623535 -206.07889648 113.06418945 -207.15185547 112.33056641 C-212.19511932 108.9109951 -217.32032439 105.61990667 -222.4375 102.3125 C-245.88688693 87.03872613 -245.88688693 87.03872613 -247.3125 84.1875 C-247.93741843 78.27918025 -247.32878375 75.29438352 -243.70532227 70.60693359 C-243.18381592 69.97352051 -242.66230957 69.34010742 -242.125 68.6875 C-241.59124756 68.00896973 -241.05749512 67.33043945 -240.50756836 66.63134766 C-238.79563614 64.46673268 -237.05634884 62.32645462 -235.3125 60.1875 C-234.1398392 58.72719317 -232.96795967 57.26625861 -231.796875 55.8046875 C-229.13215954 52.49340046 -226.45100332 49.19662551 -223.74267578 45.92089844 C-222.78695875 44.76255242 -221.8374172 43.59908419 -220.89404297 42.43066406 C-217.53114816 38.29682408 -217.53114816 38.29682408 -215.3125 37.1875 C-209.47103481 36.63252523 -206.46452106 37.84378895 -201.625 41.0625 C-196.6156378 44.38400881 -196.6156378 44.38400881 -191.3125 47.1875 C-191.09722656 46.49398437 -190.88195312 45.80046875 -190.66015625 45.0859375 C-188.95122429 41.41049544 -186.50591982 38.72391692 -183.75 35.8125 C-183.20625732 35.23741699 -182.66251465 34.66233398 -182.10229492 34.06982422 C-167.25349284 18.60186626 -148.82552612 12.71997077 -127.68359375 12.10546875 C-112.30956567 12.06947697 -97.77293918 17.44224847 -83.4453125 22.48046875 C-67.25937996 28.01375238 -48.52262353 26.47634406 -33.0625 19.5625 C-25.96243031 15.82659946 -21.36958301 10.47191297 -17.0625 3.8125 C-14.91498804 0.59123206 -12.97904539 -1.16738566 -9.375 -2.5625 C-5.41700407 -3.04225708 -3.15656142 -2.47406166 0 0 Z M-44.3125 159.1875 C-44.6425 159.8475 -44.9725 160.5075 -45.3125 161.1875 C-44.3225 160.8575 -43.3325 160.5275 -42.3125 160.1875 C-42.9725 159.8575 -43.6325 159.5275 -44.3125 159.1875 Z " fill="#050505" transform="translate(251.3125,51.8125)"/>
<path d="M0 0 C2.69397397 5.0886175 2.64660046 9.5625054 1.6875 15.1875 C-4.84891804 32.7973792 -17.08369119 44.55840959 -33.7578125 52.6796875 C-40.76511894 55.65201748 -47.48074903 57.7124446 -55.0625 58.5 C-55.86381348 58.58483643 -56.66512695 58.66967285 -57.49072266 58.75708008 C-67.69913761 59.64173065 -79.25986247 59.29451204 -89.13671875 56.34375 C-91.4971278 55.93107992 -91.4971278 55.93107992 -93.55859375 57.92578125 C-102.23535532 68.11826944 -108.55507934 77.72469034 -110.3125 91.1875 C-108.77156172 90.61210013 -107.23070928 90.03646975 -105.69018555 89.45996094 C-104.28969921 88.93612375 -102.88880649 88.41337198 -101.48754883 87.89160156 C-97.29607952 86.32562772 -93.12157748 84.72438903 -88.9609375 83.078125 C-88.05432373 82.72298828 -87.14770996 82.36785156 -86.21362305 82.00195312 C-84.45150926 81.3107416 -82.69234491 80.61194553 -80.93676758 79.90429688 C-67.94033765 74.83522311 -53.73611296 72.78210484 -40.5859375 78.33984375 C-31.11055047 83.05143427 -24.04145426 90.18208808 -20.3125 100.1875 C-16.32801879 112.27087235 -17.30876462 125.54341874 -22.3125 137.1875 C-26.55732215 145.0842307 -32.1250443 151.80180431 -39.3125 157.1875 C-21.6216449 148.34207245 -0.42802899 132.63124468 8.02734375 114.29296875 C9.73501924 108.84659543 9.50963232 103.96330581 7.125 98.8125 C4.19272464 95.654665 1.52826033 94.10788016 -2.3125 92.1875 C-2.3125 90.8675 -2.3125 89.5475 -2.3125 88.1875 C9.21308846 89.10222924 18.95064411 92.15644637 27.125 100.75 C31.33472749 107.31717489 31.38276496 113.56632642 30.6875 121.1875 C25.46262433 143.90578851 0.50618083 161.54747448 -18.06518555 173.32666016 C-20.14199097 174.62299211 -22.22591821 175.90698033 -24.3125 177.1875 C-25.39273438 177.86167969 -26.47296875 178.53585938 -27.5859375 179.23046875 C-68.06890722 203.47027161 -125.34273261 223.65595507 -173.015625 213.171875 C-177.6033611 211.80207702 -181.41633594 209.94944741 -185.3125 207.1875 C-186.7046875 206.259375 -186.7046875 206.259375 -188.125 205.3125 C-192.40185266 201.15784313 -195.44056256 195.81157044 -195.625 189.8125 C-195.46909394 178.99261953 -190.87494074 170.51958768 -184.3125 162.1875 C-183.3225 162.5175 -182.3325 162.8475 -181.3125 163.1875 C-181.43109375 164.20070312 -181.5496875 165.21390625 -181.671875 166.2578125 C-181.80326578 167.60926056 -181.93340796 168.96083042 -182.0625 170.3125 C-182.18431641 171.31023437 -182.18431641 171.31023437 -182.30859375 172.328125 C-182.6374897 176.05561247 -182.33980778 178.13352248 -180.640625 181.4921875 C-178.29914953 184.20295608 -176.50989728 185.62779401 -173.3125 187.1875 C-172.466875 187.620625 -171.62125 188.05375 -170.75 188.5 C-168.35584149 189.41847955 -168.35584149 189.41847955 -166.1875 188.5 C-164.29192527 187.25640981 -164.29192527 187.25640981 -162.82421875 185.68359375 C-161.04196656 183.91976277 -159.42666107 183.23642617 -157.125 182.25 C-141.75112007 174.76594115 -126.89312224 162.22629255 -120.3125 146.1875 C-118.64119678 139.88069539 -119.44552053 133.57647179 -120.3125 127.1875 C-119.02279297 127.13142578 -119.02279297 127.13142578 -117.70703125 127.07421875 C-110.26706123 126.66043634 -103.36027065 125.70828697 -96.15234375 123.80859375 C-93.43535293 123.2143688 -91.08185488 123.07062814 -88.3125 123.1875 C-83.79431499 133.42871936 -84.40332023 145.6608933 -88.12402344 156.10717773 C-92.77786945 167.83710886 -100.24468498 176.58777867 -109.3125 185.1875 C-98.15148644 182.729089 -87.66459695 179.30199844 -77.05419922 175.0690918 C-74.65848627 174.11342623 -72.25759951 173.17182571 -69.85546875 172.23242188 C-68.30698121 171.62318432 -66.75879251 171.01318654 -65.2109375 170.40234375 C-64.50464203 170.12414291 -63.79834656 169.84594208 -63.07064819 169.55931091 C-56.2011092 167.14420113 -56.2011092 167.14420113 -50.3125 163.1875 C-51.04855469 163.23390625 -51.78460938 163.2803125 -52.54296875 163.328125 C-60.58251244 163.62549253 -60.58251244 163.62549253 -64.4375 161.3125 C-67.72538834 157.58622655 -67.70901215 154.62970293 -67.66015625 149.79296875 C-67.10858422 145.65927727 -65.20304622 143.10173922 -62.3125 140.1875 C-61.466875 139.548125 -60.62125 138.90875 -59.75 138.25 C-55.69549425 134.81926436 -53.96662926 130.14988777 -52.3125 125.1875 C-52.16752877 123.0240832 -52.09179825 120.85557069 -52.0625 118.6875 C-52.03671875 117.5428125 -52.0109375 116.398125 -51.984375 115.21875 C-52.04422008 112.24202117 -52.04422008 112.24202117 -53.58911133 110.49731445 C-55.46954078 108.7928669 -55.46954078 108.7928669 -59.21484375 109.19921875 C-65.44328955 110.12889385 -71.0828186 112.62196092 -76.875 115 C-110.30862882 128.24675567 -110.30862882 128.24675567 -125.3125 122.1875 C-130.26917899 119.61040314 -134.21621927 116.96093279 -137.3125 112.1875 C-137.3125 111.5275 -137.3125 110.8675 -137.3125 110.1875 C-133.49360838 111.46046387 -132.33022913 113.40485399 -129.91015625 116.49609375 C-126.0079318 120.62729958 -121.49101615 120.64483217 -116.0625 120.9375 C-115.33675781 120.99292969 -114.61101562 121.04835938 -113.86328125 121.10546875 C-108.59608519 121.41530381 -104.3746688 120.67542182 -99.3125 119.1875 C-92.64474115 117.24778834 -92.64474115 117.24778834 -90.33203125 116.828125 C-85.40766307 115.93115447 -81.27791996 114.3441509 -76.75 112.1875 C-68.92552327 108.46588114 -61.12099868 105.69534995 -52.3125 107.1875 C-49.74209737 109.45550232 -49.42632054 111.08016117 -49.08203125 114.4296875 C-48.72671239 125.29229257 -51.27110211 132.83131827 -58.3125 141.1875 C-60.23548168 143.01646924 -62.19685586 144.57558065 -64.3125 146.1875 C-65.8760348 149.31456959 -65.71208487 152.76732443 -65.3125 156.1875 C-63.59023504 159.43599977 -63.59023504 159.43599977 -60.3125 160.1875 C-53.62224288 160.99244218 -48.95145006 159.76778576 -43.3125 156.1875 C-42.30703125 155.56875 -42.30703125 155.56875 -41.28125 154.9375 C-35.50424824 151.0269142 -31.97634701 146.05151977 -28.3125 140.1875 C-27.89871094 139.53136719 -27.48492187 138.87523437 -27.05859375 138.19921875 C-20.64875912 127.53192938 -20.25448689 113.14329496 -23.1171875 101.13671875 C-25.71325324 93.51860861 -29.66117005 88.64978465 -36.3125 84.1875 C-37.0446875 83.6615625 -37.776875 83.135625 -38.53125 82.59375 C-48.10315926 76.99977706 -62.22915245 77.3676805 -72.81103516 79.75 C-77.50574898 81.15194211 -81.88802873 83.08280359 -86.3125 85.1875 C-88.64467062 86.19020865 -90.9779004 87.1904598 -93.3125 88.1875 C-94.83473277 88.87189585 -96.35578205 89.55893769 -97.875 90.25 C-102.75979001 92.41824863 -106.89794091 94.1875 -112.3125 94.1875 C-113.34350675 77.51955751 -106.19530356 68.40068208 -95.8359375 56.29296875 C-93.3125 54.1875 -93.3125 54.1875 -90.62890625 53.8828125 C-89.72011719 54.02460937 -88.81132812 54.16640625 -87.875 54.3125 C-86.96878906 54.43882813 -86.06257812 54.56515625 -85.12890625 54.6953125 C-83.29501603 55.01579817 -81.46501842 55.35972213 -79.640625 55.73046875 C-74.9222467 56.37841507 -70.25715027 56.37180084 -65.5 56.375 C-64.55318359 56.38724609 -63.60636719 56.39949219 -62.63085938 56.41210938 C-45.08340081 56.4483395 -28.44178651 48.69455177 -15.3125 37.1875 C-8.27158025 28.71972719 -1.20963281 19.40329693 -1.125 8.0625 C-1.11082031 7.19367187 -1.09664062 6.32484375 -1.08203125 5.4296875 C-1.09506395 2.98420274 -1.09506395 2.98420274 -3.3125 1.1875 C-6.46561547 0.71453268 -8.29985112 0.45972527 -11.3125 1.1875 C-14.45354458 3.63632385 -16.47675524 6.96095629 -18.69921875 10.22265625 C-25.13517518 19.37405731 -35.78291324 25.86315897 -46.84375 27.80859375 C-52.6298595 28.41101501 -58.43822356 28.41103773 -64.25 28.4375 C-65.37857422 28.458125 -66.50714844 28.47875 -67.66992188 28.5 C-74.50964289 28.53183116 -79.99780195 27.8036241 -86.3125 25.1875 C-87.30378906 24.836875 -88.29507813 24.48625 -89.31640625 24.125 C-90.16074219 23.815625 -91.00507813 23.50625 -91.875 23.1875 C-92.80570313 22.84976563 -93.73640625 22.51203125 -94.6953125 22.1640625 C-96.26206892 21.5794519 -97.82233763 20.97619847 -99.3671875 20.3359375 C-109.1110204 16.33328415 -119.02597239 15.99701712 -129.4375 15.9375 C-130.45070313 15.92823486 -131.46390625 15.91896973 -132.5078125 15.90942383 C-142.10530821 15.94925718 -150.61285377 17.42518449 -159.375 21.375 C-160.0661792 21.68469727 -160.7573584 21.99439453 -161.46948242 22.31347656 C-167.08505774 24.91898736 -171.77192145 27.95072146 -176.3125 32.1875 C-177.26253906 33.05890625 -178.21257812 33.9303125 -179.19140625 34.828125 C-184.26689537 39.64124481 -187.85384606 43.60937953 -190.3125 50.1875 C-194.86019788 49.65247672 -197.57428152 47.73267003 -201.3125 45.1875 C-202.055 45.0225 -202.7975 44.8575 -203.5625 44.6875 C-205.3125 44.1875 -205.3125 44.1875 -206.5625 42.125 C-206.81 41.485625 -207.0575 40.84625 -207.3125 40.1875 C-208.529375 40.084375 -209.74625 39.98125 -211 39.875 C-212.02673828 39.78798828 -212.02673828 39.78798828 -213.07421875 39.69921875 C-216.52938402 40.45296335 -217.98735549 42.5936562 -220.3125 45.1875 C-221.11429688 46.07566406 -221.91609375 46.96382812 -222.7421875 47.87890625 C-227.80964193 53.82871297 -232.0001662 59.62355051 -235.64453125 66.59375 C-237.51543425 69.50306989 -239.54006208 71.15078994 -242.3125 73.1875 C-244.68986886 75.64684709 -245.26662961 76.74714428 -245.625 80.1875 C-245.32600896 83.05781397 -244.80898497 84.75571192 -243.3125 87.1875 C-244.3025 86.8575 -245.2925 86.5275 -246.3125 86.1875 C-247.94011725 82.93226551 -247.8829779 79.70347446 -247.3125 76.1875 C-245.94962706 73.37924349 -244.10307673 71.09003966 -242.125 68.6875 C-241.59124756 68.00896973 -241.05749512 67.33043945 -240.50756836 66.63134766 C-238.79563614 64.46673268 -237.05634884 62.32645462 -235.3125 60.1875 C-234.1398392 58.72719317 -232.96795967 57.26625861 -231.796875 55.8046875 C-229.13215954 52.49340046 -226.45100332 49.19662551 -223.74267578 45.92089844 C-222.78695875 44.76255242 -221.8374172 43.59908419 -220.89404297 42.43066406 C-217.53114816 38.29682408 -217.53114816 38.29682408 -215.3125 37.1875 C-209.47103481 36.63252523 -206.46452106 37.84378895 -201.625 41.0625 C-196.6156378 44.38400881 -196.6156378 44.38400881 -191.3125 47.1875 C-191.09722656 46.49398437 -190.88195312 45.80046875 -190.66015625 45.0859375 C-188.95122429 41.41049544 -186.50591982 38.72391692 -183.75 35.8125 C-183.20625732 35.23741699 -182.66251465 34.66233398 -182.10229492 34.06982422 C-167.25349284 18.60186626 -148.82552612 12.71997077 -127.68359375 12.10546875 C-112.30956567 12.06947697 -97.77293918 17.44224847 -83.4453125 22.48046875 C-67.25937996 28.01375238 -48.52262353 26.47634406 -33.0625 19.5625 C-25.96243031 15.82659946 -21.36958301 10.47191297 -17.0625 3.8125 C-14.91498804 0.59123206 -12.97904539 -1.16738566 -9.375 -2.5625 C-5.41700407 -3.04225708 -3.15656142 -2.47406166 0 0 Z M-44.3125 159.1875 C-44.6425 159.8475 -44.9725 160.5075 -45.3125 161.1875 C-44.3225 160.8575 -43.3325 160.5275 -42.3125 160.1875 C-42.9725 159.8575 -43.6325 159.5275 -44.3125 159.1875 Z " fill="#A8A8A8" transform="translate(251.3125,51.8125)"/>
<path d="M0 0 C2.59913353 0.47865231 3.44303145 1.22180654 4.97265625 3.36328125 C6.07808795 9.56236882 4.88558184 14.8387672 1.97265625 20.36328125 C1.63234375 21.0490625 1.29203125 21.73484375 0.94140625 22.44140625 C-4.38060022 32.72582415 -11.11451026 40.36844732 -21.02734375 46.36328125 C-21.90519531 46.89824219 -22.78304687 47.43320313 -23.6875 47.984375 C-35.21304203 54.634364 -46.46162661 57.55960447 -59.65234375 57.55078125 C-61.13250977 57.55174805 -61.13250977 57.55174805 -62.64257812 57.55273438 C-68.51474599 57.51004181 -74.08120102 57.21301507 -79.80859375 55.80078125 C-82.73543881 55.22365687 -85.04721062 55.00228574 -88.02734375 55.36328125 C-95.96781686 61.730185 -103.80418508 72.25801457 -106.02734375 82.36328125 C-106.46493258 86.35820989 -106.78071487 90.35231679 -107.02734375 94.36328125 C-100.36535316 92.45405224 -93.95488825 90.57034864 -87.83203125 87.29296875 C-85.40420044 86.04226803 -82.87983797 85.11198615 -80.30078125 84.22265625 C-77.9384274 83.37438968 -77.9384274 83.37438968 -75.44140625 82.06640625 C-64.27687733 76.85043211 -49.43052314 75.48601625 -37.6796875 79.6953125 C-34.19881931 81.21197009 -31.11590872 83.15090492 -28.02734375 85.36328125 C-27.29386719 85.88019531 -26.56039062 86.39710938 -25.8046875 86.9296875 C-19.5885077 92.19562325 -16.58410249 100.01377446 -15.75683594 107.96240234 C-15.57776641 110.85002353 -15.49553977 113.72036255 -15.46484375 116.61328125 C-15.4501001 117.53568604 -15.43535645 118.45809082 -15.42016602 119.40844727 C-15.51723081 125.88505236 -16.96020063 130.68370235 -20.02734375 136.36328125 C-20.53136719 137.30558594 -21.03539062 138.24789062 -21.5546875 139.21875 C-27.57363204 149.17251701 -34.51307278 157.52519093 -46.02734375 161.36328125 C-47.5032099 161.48015463 -48.98440987 161.53829867 -50.46484375 161.55078125 C-51.60759766 161.57205078 -51.60759766 161.57205078 -52.7734375 161.59375 C-55.33017575 161.33231576 -56.8662122 160.74438655 -59.02734375 159.36328125 C-61.13173184 156.20669912 -61.56640068 154.25066808 -61.4765625 150.484375 C-60.63669137 146.51872263 -57.87152887 144.09343065 -55.02734375 141.36328125 C-47.51741739 134.02800434 -45.00837489 127.49338882 -44.77734375 117.05078125 C-44.75493738 113.57219175 -45.28519536 111.38438779 -47.02734375 108.36328125 C-56.46966758 107.82084988 -63.76236671 109.72456838 -72.21484375 113.86328125 C-77.96178729 116.60109556 -83.60787321 117.64670984 -89.83984375 118.6875 C-93.16335092 119.18667864 -93.16335092 119.18667864 -96.02734375 121.36328125 C-100.9072245 122.53301737 -105.55987975 122.43332112 -110.52734375 122.17578125 C-111.26082031 122.15708984 -111.99429688 122.13839844 -112.75 122.11914062 C-118.63235302 121.81923533 -122.3822294 120.04777695 -126.6015625 115.765625 C-126.96894531 115.28222656 -127.33632812 114.79882812 -127.71484375 114.30078125 C-129.77032306 111.50619307 -129.77032306 111.50619307 -131.56640625 110.01171875 C-136.73356085 104.18139992 -136.60107884 93.31989319 -136.33984375 85.97265625 C-135.25004644 73.38549733 -135.25004644 73.38549733 -132.02734375 68.36328125 C-127.79898991 66.29839189 -123.54565987 65.57112471 -118.95947266 64.77929688 C-107.51148703 62.31437806 -97.25188206 53.83563509 -90.71484375 44.48828125 C-90.12058594 43.56273437 -89.52632812 42.6371875 -88.9140625 41.68359375 C-86.78008072 39.0591938 -85.20410782 38.37431169 -82.02734375 37.36328125 C-80.63804721 36.20080174 -80.63804721 36.20080174 -80.90234375 32.98828125 C-80.85433914 29.41005153 -80.85433914 29.41005153 -82.02734375 26.36328125 C-81.45628906 26.43329346 -80.88523438 26.50330566 -80.296875 26.57543945 C-73.19624855 27.37341327 -66.1685805 27.546639 -59.02734375 27.55078125 C-57.91617188 27.56302734 -56.805 27.57527344 -55.66015625 27.58789062 C-45.49325192 27.60583222 -36.85675071 26.35501336 -27.77734375 21.67578125 C-27.08205566 21.32128906 -26.38676758 20.96679688 -25.67041016 20.6015625 C-20.63322069 17.92335115 -17.14824623 15.19125455 -14.02734375 10.36328125 C-12.95028532 8.92107374 -11.86682382 7.48362826 -10.77734375 6.05078125 C-10.2978125 5.39464844 -9.81828125 4.73851562 -9.32421875 4.0625 C-6.43980582 0.28322402 -4.72691508 0.11485962 0 0 Z " fill="#050505" transform="translate(246.02734375,51.63671875)"/>
<path d="M0 0 C3.20395332 11.53005848 1.7902673 25.62852092 -3.62890625 36.16796875 C-10.13824561 47.38507273 -18.09990828 56.19082172 -28.84765625 63.44140625 C-31.10377638 64.82243684 -31.10377638 64.82243684 -32 67 C-34.60871081 67.50072411 -37.11403462 67.85589977 -39.75 68.125 C-40.54043701 68.20919189 -41.33087402 68.29338379 -42.14526367 68.38012695 C-48.53498138 68.9942716 -54.8954354 69.18186902 -61.3125 69.1875 C-62.64522949 69.1887085 -62.64522949 69.1887085 -64.00488281 69.18994141 C-68.12461511 69.1543856 -71.98386969 69.03508513 -76 68 C-75.6740051 64.95738092 -75.02104739 64.0198781 -72.75 61.875 C-70 60 -70 60 -67.62109375 59.078125 C-62.93736685 57.15158458 -59.05360559 53.99588635 -55 51 C-54.15695313 50.37738281 -53.31390625 49.75476563 -52.4453125 49.11328125 C-43.93434767 42.57760265 -32.87672337 33.38913397 -30.41625977 22.390625 C-30.07006363 19.59140317 -29.84867708 16.81574421 -29.6875 14 C-29.57825195 12.55173828 -29.57825195 12.55173828 -29.46679688 11.07421875 C-29.29174133 8.71680414 -29.13661572 6.35990063 -29 4 C-27.81857422 3.94392578 -27.81857422 3.94392578 -26.61328125 3.88671875 C-19.40189458 3.45147529 -12.67978697 2.40962772 -5.6796875 0.62109375 C-3 0 -3 0 0 0 Z " fill="#070707" transform="translate(162,177)"/>
<path d="M0 0 C2.69397397 5.0886175 2.64660046 9.5625054 1.6875 15.1875 C-4.84891804 32.7973792 -17.08369119 44.55840959 -33.7578125 52.6796875 C-40.76511894 55.65201748 -47.48074903 57.7124446 -55.0625 58.5 C-55.86381348 58.58483643 -56.66512695 58.66967285 -57.49072266 58.75708008 C-67.69913761 59.64173065 -79.25986247 59.29451204 -89.13671875 56.34375 C-91.4971278 55.93107992 -91.4971278 55.93107992 -93.55859375 57.92578125 C-102.23535532 68.11826944 -108.55507934 77.72469034 -110.3125 91.1875 C-108.77156172 90.61210013 -107.23070928 90.03646975 -105.69018555 89.45996094 C-104.28969921 88.93612375 -102.88880649 88.41337198 -101.48754883 87.89160156 C-97.29607952 86.32562772 -93.12157748 84.72438903 -88.9609375 83.078125 C-88.05432373 82.72298828 -87.14770996 82.36785156 -86.21362305 82.00195312 C-84.45150926 81.3107416 -82.69234491 80.61194553 -80.93676758 79.90429688 C-67.94033765 74.83522311 -53.73611296 72.78210484 -40.5859375 78.33984375 C-31.11055047 83.05143427 -24.04145426 90.18208808 -20.3125 100.1875 C-16.32801879 112.27087235 -17.30876462 125.54341874 -22.3125 137.1875 C-26.55732215 145.0842307 -32.1250443 151.80180431 -39.3125 157.1875 C-21.6216449 148.34207245 -0.42802899 132.63124468 8.02734375 114.29296875 C9.4596065 109.72498283 9.84736536 104.71527833 7.81640625 100.2890625 C6.65470422 98.48525796 6.65470422 98.48525796 4.6875 96.1875 C4.3575 95.5275 4.0275 94.8675 3.6875 94.1875 C5.625 95 5.625 95 7.6875 96.1875 C8.0175 97.1775 8.3475 98.1675 8.6875 99.1875 C9.6775 99.5175 10.6675 99.8475 11.6875 100.1875 C11.6875 104.8075 11.6875 109.4275 11.6875 114.1875 C11.0275 114.1875 10.3675 114.1875 9.6875 114.1875 C9.43226563 115.06664062 9.17703125 115.94578125 8.9140625 116.8515625 C2.28507274 134.88072573 -17.55424371 147.09821146 -33.0625 156.875 C-33.72958984 157.29700684 -34.39667969 157.71901367 -35.08398438 158.15380859 C-39.8642695 161.0978845 -39.8642695 161.0978845 -42.45800781 161.61645508 C-43.06999023 161.8048999 -43.68197266 161.99334473 -44.3125 162.1875 C-44.6425 163.1775 -44.9725 164.1675 -45.3125 165.1875 C-47.21801558 165.95639225 -49.13046293 166.71257433 -51.07421875 167.37890625 C-55.48703871 168.97306634 -59.59728789 171.26456577 -63.72265625 173.484375 C-68.4051403 175.94503122 -72.50863147 177.57675986 -77.6953125 178.52734375 C-81.22344108 179.41727469 -84.52152707 180.7976873 -87.875 182.1875 C-95.73032847 185.44174011 -95.73032847 185.44174011 -99.625 186.3125 C-102.81375901 187.06915468 -105.44170457 188.03429395 -108.4375 189.3125 C-112.22541505 190.89079794 -115.15203792 191.62544338 -119.3125 191.1875 C-117.79777736 187.3184656 -115.53009208 185.59314242 -112.25 183.125 C-100.93296092 174.05951843 -91.63224471 161.84187652 -89.3125 147.1875 C-89.09208186 143.34875315 -89.1219313 139.53083428 -89.1875 135.6875 C-89.19652344 134.67429688 -89.20554688 133.66109375 -89.21484375 132.6171875 C-89.23820993 130.14037199 -89.27096832 127.66406621 -89.3125 125.1875 C-90.81876953 125.620625 -90.81876953 125.620625 -92.35546875 126.0625 C-101.17257733 128.49196852 -109.08912346 129.75606431 -118.3125 129.1875 C-118.6425 130.5075 -118.9725 131.8275 -119.3125 133.1875 C-119.6425 131.2075 -119.9725 129.2275 -120.3125 127.1875 C-119.02279297 127.13142578 -119.02279297 127.13142578 -117.70703125 127.07421875 C-110.26706123 126.66043634 -103.36027065 125.70828697 -96.15234375 123.80859375 C-93.43535293 123.2143688 -91.08185488 123.07062814 -88.3125 123.1875 C-83.79431499 133.42871936 -84.40332023 145.6608933 -88.12402344 156.10717773 C-92.77786945 167.83710886 -100.24468498 176.58777867 -109.3125 185.1875 C-98.15148644 182.729089 -87.66459695 179.30199844 -77.05419922 175.0690918 C-74.65848627 174.11342623 -72.25759951 173.17182571 -69.85546875 172.23242188 C-68.30698121 171.62318432 -66.75879251 171.01318654 -65.2109375 170.40234375 C-64.50464203 170.12414291 -63.79834656 169.84594208 -63.07064819 169.55931091 C-56.2011092 167.14420113 -56.2011092 167.14420113 -50.3125 163.1875 C-51.04855469 163.23390625 -51.78460938 163.2803125 -52.54296875 163.328125 C-60.58251244 163.62549253 -60.58251244 163.62549253 -64.4375 161.3125 C-67.72538834 157.58622655 -67.70901215 154.62970293 -67.66015625 149.79296875 C-67.10858422 145.65927727 -65.20304622 143.10173922 -62.3125 140.1875 C-61.466875 139.548125 -60.62125 138.90875 -59.75 138.25 C-55.69549425 134.81926436 -53.96662926 130.14988777 -52.3125 125.1875 C-52.16752877 123.0240832 -52.09179825 120.85557069 -52.0625 118.6875 C-52.03671875 117.5428125 -52.0109375 116.398125 -51.984375 115.21875 C-52.04422008 112.24202117 -52.04422008 112.24202117 -53.58911133 110.49731445 C-55.46954078 108.7928669 -55.46954078 108.7928669 -59.21484375 109.19921875 C-65.44328955 110.12889385 -71.0828186 112.62196092 -76.875 115 C-110.30862882 128.24675567 -110.30862882 128.24675567 -125.3125 122.1875 C-130.26917899 119.61040314 -134.21621927 116.96093279 -137.3125 112.1875 C-137.3125 111.5275 -137.3125 110.8675 -137.3125 110.1875 C-133.49360838 111.46046387 -132.33022913 113.40485399 -129.91015625 116.49609375 C-126.0079318 120.62729958 -121.49101615 120.64483217 -116.0625 120.9375 C-115.33675781 120.99292969 -114.61101562 121.04835938 -113.86328125 121.10546875 C-108.59608519 121.41530381 -104.3746688 120.67542182 -99.3125 119.1875 C-92.64474115 117.24778834 -92.64474115 117.24778834 -90.33203125 116.828125 C-85.40766307 115.93115447 -81.27791996 114.3441509 -76.75 112.1875 C-68.92552327 108.46588114 -61.12099868 105.69534995 -52.3125 107.1875 C-49.74209737 109.45550232 -49.42632054 111.08016117 -49.08203125 114.4296875 C-48.72671239 125.29229257 -51.27110211 132.83131827 -58.3125 141.1875 C-60.23548168 143.01646924 -62.19685586 144.57558065 -64.3125 146.1875 C-65.8760348 149.31456959 -65.71208487 152.76732443 -65.3125 156.1875 C-63.59023504 159.43599977 -63.59023504 159.43599977 -60.3125 160.1875 C-53.62224288 160.99244218 -48.95145006 159.76778576 -43.3125 156.1875 C-42.30703125 155.56875 -42.30703125 155.56875 -41.28125 154.9375 C-35.50424824 151.0269142 -31.97634701 146.05151977 -28.3125 140.1875 C-27.89871094 139.53136719 -27.48492187 138.87523437 -27.05859375 138.19921875 C-20.64875912 127.53192938 -20.25448689 113.14329496 -23.1171875 101.13671875 C-25.71325324 93.51860861 -29.66117005 88.64978465 -36.3125 84.1875 C-37.0446875 83.6615625 -37.776875 83.135625 -38.53125 82.59375 C-48.10315926 76.99977706 -62.22915245 77.3676805 -72.81103516 79.75 C-77.50574898 81.15194211 -81.88802873 83.08280359 -86.3125 85.1875 C-88.64467062 86.19020865 -90.9779004 87.1904598 -93.3125 88.1875 C-94.83473277 88.87189585 -96.35578205 89.55893769 -97.875 90.25 C-102.75979001 92.41824863 -106.89794091 94.1875 -112.3125 94.1875 C-113.34350675 77.51955751 -106.19530356 68.40068208 -95.8359375 56.29296875 C-93.3125 54.1875 -93.3125 54.1875 -90.62890625 53.8828125 C-89.72011719 54.02460937 -88.81132812 54.16640625 -87.875 54.3125 C-86.96878906 54.43882813 -86.06257812 54.56515625 -85.12890625 54.6953125 C-83.29501603 55.01579817 -81.46501842 55.35972213 -79.640625 55.73046875 C-74.9222467 56.37841507 -70.25715027 56.37180084 -65.5 56.375 C-64.55318359 56.38724609 -63.60636719 56.39949219 -62.63085938 56.41210938 C-45.08340081 56.4483395 -28.44178651 48.69455177 -15.3125 37.1875 C-8.27158025 28.71972719 -1.20963281 19.40329693 -1.125 8.0625 C-1.11082031 7.19367187 -1.09664062 6.32484375 -1.08203125 5.4296875 C-1.09506395 2.98420274 -1.09506395 2.98420274 -3.3125 1.1875 C-6.46561547 0.71453268 -8.29985112 0.45972527 -11.3125 1.1875 C-14.45354458 3.63632385 -16.47675524 6.96095629 -18.69921875 10.22265625 C-25.13517518 19.37405731 -35.78291324 25.86315897 -46.84375 27.80859375 C-52.6298595 28.41101501 -58.43822356 28.41103773 -64.25 28.4375 C-65.37857422 28.458125 -66.50714844 28.47875 -67.66992188 28.5 C-74.50964289 28.53183116 -79.99780195 27.8036241 -86.3125 25.1875 C-87.30378906 24.836875 -88.29507813 24.48625 -89.31640625 24.125 C-90.16074219 23.815625 -91.00507813 23.50625 -91.875 23.1875 C-92.80570313 22.84976563 -93.73640625 22.51203125 -94.6953125 22.1640625 C-96.26206892 21.5794519 -97.82233763 20.97619847 -99.3671875 20.3359375 C-109.1110204 16.33328415 -119.02597239 15.99701712 -129.4375 15.9375 C-130.45070313 15.92823486 -131.46390625 15.91896973 -132.5078125 15.90942383 C-142.10530821 15.94925718 -150.61285377 17.42518449 -159.375 21.375 C-160.0661792 21.68469727 -160.7573584 21.99439453 -161.46948242 22.31347656 C-167.08505774 24.91898736 -171.77192145 27.95072146 -176.3125 32.1875 C-177.26253906 33.05890625 -178.21257812 33.9303125 -179.19140625 34.828125 C-184.26689537 39.64124481 -187.85384606 43.60937953 -190.3125 50.1875 C-194.86019788 49.65247672 -197.57428152 47.73267003 -201.3125 45.1875 C-202.055 45.0225 -202.7975 44.8575 -203.5625 44.6875 C-205.3125 44.1875 -205.3125 44.1875 -206.5625 42.125 C-206.81 41.485625 -207.0575 40.84625 -207.3125 40.1875 C-208.529375 40.084375 -209.74625 39.98125 -211 39.875 C-212.02673828 39.78798828 -212.02673828 39.78798828 -213.07421875 39.69921875 C-216.52938402 40.45296335 -217.98735549 42.5936562 -220.3125 45.1875 C-221.11429688 46.07566406 -221.91609375 46.96382812 -222.7421875 47.87890625 C-227.80964193 53.82871297 -232.0001662 59.62355051 -235.64453125 66.59375 C-237.51543425 69.50306989 -239.54006208 71.15078994 -242.3125 73.1875 C-244.68986886 75.64684709 -245.26662961 76.74714428 -245.625 80.1875 C-245.32600896 83.05781397 -244.80898497 84.75571192 -243.3125 87.1875 C-244.3025 86.8575 -245.2925 86.5275 -246.3125 86.1875 C-247.94011725 82.93226551 -247.8829779 79.70347446 -247.3125 76.1875 C-245.94962706 73.37924349 -244.10307673 71.09003966 -242.125 68.6875 C-241.59124756 68.00896973 -241.05749512 67.33043945 -240.50756836 66.63134766 C-238.79563614 64.46673268 -237.05634884 62.32645462 -235.3125 60.1875 C-234.1398392 58.72719317 -232.96795967 57.26625861 -231.796875 55.8046875 C-229.13215954 52.49340046 -226.45100332 49.19662551 -223.74267578 45.92089844 C-222.78695875 44.76255242 -221.8374172 43.59908419 -220.89404297 42.43066406 C-217.53114816 38.29682408 -217.53114816 38.29682408 -215.3125 37.1875 C-209.47103481 36.63252523 -206.46452106 37.84378895 -201.625 41.0625 C-196.6156378 44.38400881 -196.6156378 44.38400881 -191.3125 47.1875 C-191.09722656 46.49398437 -190.88195312 45.80046875 -190.66015625 45.0859375 C-188.95122429 41.41049544 -186.50591982 38.72391692 -183.75 35.8125 C-183.20625732 35.23741699 -182.66251465 34.66233398 -182.10229492 34.06982422 C-167.25349284 18.60186626 -148.82552612 12.71997077 -127.68359375 12.10546875 C-112.30956567 12.06947697 -97.77293918 17.44224847 -83.4453125 22.48046875 C-67.25937996 28.01375238 -48.52262353 26.47634406 -33.0625 19.5625 C-25.96243031 15.82659946 -21.36958301 10.47191297 -17.0625 3.8125 C-14.91498804 0.59123206 -12.97904539 -1.16738566 -9.375 -2.5625 C-5.41700407 -3.04225708 -3.15656142 -2.47406166 0 0 Z M-44.3125 159.1875 C-44.6425 159.8475 -44.9725 160.5075 -45.3125 161.1875 C-44.3225 160.8575 -43.3325 160.5275 -42.3125 160.1875 C-42.9725 159.8575 -43.6325 159.5275 -44.3125 159.1875 Z " fill="#D1D1D1" transform="translate(251.3125,51.8125)"/>
<path d="M0 0 C4.24572536 4.01928668 7.45477518 10.16165042 7.9609375 16.01171875 C8.13576161 26.13694858 6.30536945 33.80853882 -0.2734375 41.68359375 C-5.91349719 47.35722523 -11.6246232 49.77946452 -19.5546875 49.9140625 C-25.2129104 49.83129594 -29.45563096 49.03559998 -33.89453125 45.2578125 C-38.79793154 40.1745809 -41.14071244 34.13573014 -41.30078125 27.08203125 C-40.57841019 17.07642355 -36.86969069 8.91420442 -29.5546875 1.9765625 C-20.76721197 -5.34904094 -9.65230619 -6.68236582 0 0 Z " fill="#050505" transform="translate(194.2421875,24.3359375)"/>
<path d="M0 0 C0.99 0.66 1.98 1.32 3 2 C3.65625 8.015625 3.65625 8.015625 1.75 10.875 C0 12 0 12 -1.8828125 12.25390625 C-4.99447148 13.35045028 -5.85447417 15.32383558 -7.625 18.0625 C-15.27394811 29.03026544 -26.9856741 37.01684321 -40.17578125 39.62890625 C-43.11318461 40.12250047 -46.05094354 40.582217 -49 41 C-49.12375 42.010625 -49.2475 43.02125 -49.375 44.0625 C-50 48 -50 48 -51.0625 51.0625 C-54.14173819 61.51324781 -51.61774717 72.74715692 -49 83 C-52.45231558 81.27384221 -52.96324684 77.5933599 -54.171875 74.09375 C-56.70580832 64.62735761 -55.06451723 53.1935517 -52 44 C-52.71285156 44.13019531 -53.42570312 44.26039062 -54.16015625 44.39453125 C-61.92922217 45.51336039 -61.92922217 45.51336039 -65.18359375 43.953125 C-66.83276165 42.69053624 -68.4207119 41.34897526 -70 40 C-70.99 40 -71.98 40 -73 40 C-74.455276 37.08944799 -74.45067148 35.21908202 -74 32 C-71.1875 29.8125 -71.1875 29.8125 -68 28 C-67.52812256 27.47744629 -67.05624512 26.95489258 -66.57006836 26.41650391 C-64.54325205 24.58792542 -63.39134112 24.59432916 -60.69140625 24.5234375 C-59.44713867 24.47703125 -59.44713867 24.47703125 -58.17773438 24.4296875 C-57.31470703 24.41164063 -56.45167969 24.39359375 -55.5625 24.375 C-53.8553614 24.32377304 -52.14831912 24.26920295 -50.44140625 24.2109375 C-49.68545166 24.19337402 -48.92949707 24.17581055 -48.15063477 24.15771484 C-45.93469088 23.99521062 -44.0909981 23.7612099 -42 23 C-39.73674754 20.02236957 -39.73674754 20.02236957 -38 17 C-53.96806626 16.39869207 -66.22027753 17.34653984 -79 28 C-80.68547068 29.64764806 -82.35668078 31.31030846 -84 33 C-82.95199219 33.67546875 -81.90398437 34.3509375 -80.82421875 35.046875 C-79.44506914 35.94754413 -78.06617629 36.84860651 -76.6875 37.75 C-75.65206055 38.41515625 -75.65206055 38.41515625 -74.59570312 39.09375 C-66.77806012 44.22997922 -66.77806012 44.22997922 -65.34057617 49.34765625 C-64.27299413 57.66178623 -71.6035133 67.21917381 -75.49072266 74.38769531 C-76.50416025 76.25767643 -77.50849872 78.13233346 -78.51171875 80.0078125 C-86.62436626 95.08291084 -86.62436626 95.08291084 -91 98 C-97.26661116 99.13938385 -100.22097739 97.52765856 -105.5 94 C-107.34589604 92.68411372 -109.18356845 91.35626889 -111 90 C-110.01 89.505 -110.01 89.505 -109 89 C-106.20424622 90.67653863 -103.58471212 92.55416037 -100.921875 94.43359375 C-97.57988818 96.22522038 -95.73384859 96.6067504 -92 96 C-90.28315395 94.43954449 -90.28315395 94.43954449 -89.25 92.25 C-88.86328125 91.55390625 -88.4765625 90.8578125 -88.078125 90.140625 C-86.53238024 87.07365318 -86.53238024 87.07365318 -85 84 C-84.34 84 -83.68 84 -83 84 C-82.75672974 83.18317749 -82.75672974 83.18317749 -82.50854492 82.34985352 C-80.67806097 76.50866745 -78.25575365 71.29356445 -75.3125 65.9375 C-74.89677734 65.16728516 -74.48105469 64.39707031 -74.05273438 63.60351562 C-73.0415352 61.732216 -72.02168617 59.86559466 -71 58 C-70.34 58 -69.68 58 -69 58 C-68.35265305 54.48994096 -68.19622697 51.49466535 -69 48 C-71.86996392 44.64290519 -75.31017599 42.3884338 -79 40 C-79.88042969 39.39671875 -80.76085937 38.7934375 -81.66796875 38.171875 C-83.75974268 36.74853757 -85.86688274 35.36024869 -88 34 C-84.04344794 24.79496052 -73.39378221 19.38435791 -64.5625 15.83203125 C-59.40503451 14.15742736 -54.39822367 13.84209552 -49 13.8125 C-47.2365625 13.79123047 -47.2365625 13.79123047 -45.4375 13.76953125 C-41.96386185 14.0024229 -39.23548021 14.75216998 -36 16 C-36.875 21.75 -36.875 21.75 -38 24 C-35.93571843 23.74309819 -33.87358906 23.46886954 -31.8125 23.1875 C-30.66394531 23.03667969 -29.51539063 22.88585937 -28.33203125 22.73046875 C-24.96837279 21.99306648 -22.86106672 20.85486563 -20 19 C-19.34 19 -18.68 19 -18 19 C-18 18.34 -18 17.68 -18 17 C-16.03277992 15.61876037 -14.03131672 14.28511874 -12 13 C-10.00812602 11.00812602 -10.68700042 7.0505273 -10.57421875 4.34765625 C-10 2 -10 2 -8.1484375 0.69921875 C-5.30189687 -0.22720084 -2.97509911 -0.25319992 0 0 Z " fill="#A3A3A3" transform="translate(163,79)"/>
<path d="M0 0 C1.9375 0.8125 1.9375 0.8125 4 2 C4.33 2.99 4.66 3.98 5 5 C5.99 5.33 6.98 5.66 8 6 C8 10.62 8 15.24 8 20 C7.34 20 6.68 20 6 20 C5.74476563 20.87914062 5.48953125 21.75828125 5.2265625 22.6640625 C-1.40242726 40.69322573 -21.24174371 52.91071146 -36.75 62.6875 C-37.41708984 63.10950684 -38.08417969 63.53151367 -38.77148438 63.96630859 C-43.5517695 66.9103845 -43.5517695 66.9103845 -46.14550781 67.42895508 C-47.06348145 67.71162231 -47.06348145 67.71162231 -48 68 C-48.495 69.485 -48.495 69.485 -49 71 C-50.90551558 71.76889225 -52.81796293 72.52507433 -54.76171875 73.19140625 C-59.17453871 74.78556634 -63.28478789 77.07706577 -67.41015625 79.296875 C-72.0926403 81.75753122 -76.19613147 83.38925986 -81.3828125 84.33984375 C-84.91094108 85.22977469 -88.20902707 86.6101873 -91.5625 88 C-99.41782847 91.25424011 -99.41782847 91.25424011 -103.3125 92.125 C-106.50125901 92.88165468 -109.12920457 93.84679395 -112.125 95.125 C-115.91291505 96.70329794 -118.83953792 97.43794338 -123 97 C-121.48527736 93.1309656 -119.21759208 91.40564242 -115.9375 88.9375 C-104.62046092 79.87201843 -95.31974471 67.65437652 -93 53 C-92.77958186 49.16125315 -92.8094313 45.34333428 -92.875 41.5 C-92.88402344 40.48679688 -92.89304688 39.47359375 -92.90234375 38.4296875 C-92.92570993 35.95287199 -92.95846832 33.47656621 -93 31 C-94.00417969 31.28875 -95.00835937 31.5775 -96.04296875 31.875 C-104.86007733 34.30446852 -112.77662346 35.56856431 -122 35 C-122.33 36.32 -122.66 37.64 -123 39 C-123.33 37.02 -123.66 35.04 -124 33 C-122.71029297 32.94392578 -122.71029297 32.94392578 -121.39453125 32.88671875 C-113.95456123 32.47293634 -107.04777065 31.52078697 -99.83984375 29.62109375 C-97.12285293 29.0268688 -94.76935488 28.88312814 -92 29 C-87.48181499 39.24121936 -88.09082023 51.4733933 -91.81152344 61.91967773 C-96.46536945 73.64960886 -103.93218498 82.40027867 -113 91 C-101.83898644 88.541589 -91.35209695 85.11449844 -80.74169922 80.8815918 C-78.34598627 79.92592623 -75.94509951 78.98432571 -73.54296875 78.04492188 C-71.99448121 77.43568432 -70.44629251 76.82568654 -68.8984375 76.21484375 C-68.19214203 75.93664291 -67.48584656 75.65844208 -66.75814819 75.37181091 C-59.8886092 72.95670113 -59.8886092 72.95670113 -54 69 C-54.73605469 69.04640625 -55.47210938 69.0928125 -56.23046875 69.140625 C-64.27001244 69.43799253 -64.27001244 69.43799253 -68.125 67.125 C-71.41288834 63.39872655 -71.39651215 60.44220293 -71.34765625 55.60546875 C-70.79608422 51.47177727 -68.89054622 48.91423922 -66 46 C-65.154375 45.360625 -64.30875 44.72125 -63.4375 44.0625 C-59.38299425 40.63176436 -57.65412926 35.96238777 -56 31 C-55.85502877 28.8365832 -55.77929825 26.66807069 -55.75 24.5 C-55.72421875 23.3553125 -55.6984375 22.210625 -55.671875 21.03125 C-55.73172008 18.05452117 -55.73172008 18.05452117 -57.27661133 16.30981445 C-59.15704078 14.6053669 -59.15704078 14.6053669 -62.90234375 15.01171875 C-69.13078955 15.94139385 -74.7703186 18.43446092 -80.5625 20.8125 C-113.99612882 34.05925567 -113.99612882 34.05925567 -129 28 C-133.95667899 25.42290314 -137.90371927 22.77343279 -141 18 C-141 17.34 -141 16.68 -141 16 C-137.18110838 17.27296387 -136.01772913 19.21735399 -133.59765625 22.30859375 C-129.6954318 26.43979958 -125.17851615 26.45733217 -119.75 26.75 C-119.02425781 26.80542969 -118.29851562 26.86085937 -117.55078125 26.91796875 C-112.28358519 27.22780381 -108.0621688 26.48792182 -103 25 C-96.33224115 23.06028834 -96.33224115 23.06028834 -94.01953125 22.640625 C-89.09516307 21.74365447 -84.96541996 20.1566509 -80.4375 18 C-72.61302327 14.27838114 -64.80849868 11.50784995 -56 13 C-53.42959737 15.26800232 -53.11382054 16.89266117 -52.76953125 20.2421875 C-52.41421239 31.10479257 -54.95860211 38.64381827 -62 47 C-63.92298168 48.82896924 -65.88435586 50.38808065 -68 52 C-69.5635348 55.12706959 -69.39958487 58.57982443 -69 62 C-67.27773504 65.24849977 -67.27773504 65.24849977 -64 66 C-58.58025107 66.35711524 -53.35546231 65.87436119 -48 65 C-47.34 65 -46.68 65 -46 65 C-27.40852383 55.86508783 -4.51029905 39.29993429 4.33984375 20.10546875 C5.7721065 15.53748283 6.15986536 10.52777833 4.12890625 6.1015625 C2.96720422 4.29775796 2.96720422 4.29775796 1 2 C0.67 1.34 0.34 0.68 0 0 Z " fill="#D5D5D6" transform="translate(255,146)"/>
<path d="M0 0 C2.55796865 4.83171856 2.36964079 9.81762428 1.6875 15.1875 C1.0275 15.8475 0.3675 16.5075 -0.3125 17.1875 C-0.36148438 16.20007813 -0.41046875 15.21265625 -0.4609375 14.1953125 C-0.57308594 12.27332031 -0.57308594 12.27332031 -0.6875 10.3125 C-0.79191406 8.39824219 -0.79191406 8.39824219 -0.8984375 6.4453125 C-0.98491106 3.10688301 -0.98491106 3.10688301 -3.3125 1.1875 C-6.46561547 0.71453268 -8.29985112 0.45972527 -11.3125 1.1875 C-14.45354458 3.63632385 -16.47675524 6.96095629 -18.69921875 10.22265625 C-25.13517518 19.37405731 -35.78291324 25.86315897 -46.84375 27.80859375 C-52.6298595 28.41101501 -58.43822356 28.41103773 -64.25 28.4375 C-65.37857422 28.458125 -66.50714844 28.47875 -67.66992188 28.5 C-74.50964289 28.53183116 -79.99780195 27.8036241 -86.3125 25.1875 C-87.30378906 24.836875 -88.29507813 24.48625 -89.31640625 24.125 C-90.16074219 23.815625 -91.00507813 23.50625 -91.875 23.1875 C-92.80570313 22.84976563 -93.73640625 22.51203125 -94.6953125 22.1640625 C-96.26206892 21.5794519 -97.82233763 20.97619847 -99.3671875 20.3359375 C-109.1110204 16.33328415 -119.02597239 15.99701712 -129.4375 15.9375 C-130.45070313 15.92823486 -131.46390625 15.91896973 -132.5078125 15.90942383 C-142.10530821 15.94925718 -150.61285377 17.42518449 -159.375 21.375 C-160.0661792 21.68469727 -160.7573584 21.99439453 -161.46948242 22.31347656 C-167.08505774 24.91898736 -171.77192145 27.95072146 -176.3125 32.1875 C-177.26253906 33.05890625 -178.21257812 33.9303125 -179.19140625 34.828125 C-184.26689537 39.64124481 -187.85384606 43.60937953 -190.3125 50.1875 C-194.86019788 49.65247672 -197.57428152 47.73267003 -201.3125 45.1875 C-202.055 45.0225 -202.7975 44.8575 -203.5625 44.6875 C-205.3125 44.1875 -205.3125 44.1875 -206.5625 42.125 C-206.81 41.485625 -207.0575 40.84625 -207.3125 40.1875 C-208.529375 40.084375 -209.74625 39.98125 -211 39.875 C-212.02673828 39.78798828 -212.02673828 39.78798828 -213.07421875 39.69921875 C-216.52938402 40.45296335 -217.98735549 42.5936562 -220.3125 45.1875 C-221.11429688 46.07566406 -221.91609375 46.96382812 -222.7421875 47.87890625 C-227.80964193 53.82871297 -232.0001662 59.62355051 -235.64453125 66.59375 C-237.51543425 69.50306989 -239.54006208 71.15078994 -242.3125 73.1875 C-244.68986886 75.64684709 -245.26662961 76.74714428 -245.625 80.1875 C-245.32600896 83.05781397 -244.80898497 84.75571192 -243.3125 87.1875 C-244.3025 86.8575 -245.2925 86.5275 -246.3125 86.1875 C-247.94011725 82.93226551 -247.8829779 79.70347446 -247.3125 76.1875 C-245.94962706 73.37924349 -244.10307673 71.09003966 -242.125 68.6875 C-241.59124756 68.00896973 -241.05749512 67.33043945 -240.50756836 66.63134766 C-238.79563614 64.46673268 -237.05634884 62.32645462 -235.3125 60.1875 C-234.1398392 58.72719317 -232.96795967 57.26625861 -231.796875 55.8046875 C-229.13215954 52.49340046 -226.45100332 49.19662551 -223.74267578 45.92089844 C-222.78695875 44.76255242 -221.8374172 43.59908419 -220.89404297 42.43066406 C-217.53114816 38.29682408 -217.53114816 38.29682408 -215.3125 37.1875 C-209.47103481 36.63252523 -206.46452106 37.84378895 -201.625 41.0625 C-196.6156378 44.38400881 -196.6156378 44.38400881 -191.3125 47.1875 C-191.09722656 46.49398437 -190.88195312 45.80046875 -190.66015625 45.0859375 C-188.95122429 41.41049544 -186.50591982 38.72391692 -183.75 35.8125 C-183.20625732 35.23741699 -182.66251465 34.66233398 -182.10229492 34.06982422 C-167.25349284 18.60186626 -148.82552612 12.71997077 -127.68359375 12.10546875 C-112.30956567 12.06947697 -97.77293918 17.44224847 -83.4453125 22.48046875 C-67.25937996 28.01375238 -48.52262353 26.47634406 -33.0625 19.5625 C-25.96243031 15.82659946 -21.36958301 10.47191297 -17.0625 3.8125 C-14.91498804 0.59123206 -12.97904539 -1.16738566 -9.375 -2.5625 C-5.41700407 -3.04225708 -3.15656142 -2.47406166 0 0 Z " fill="#E4E4E4" transform="translate(251.3125,51.8125)"/>
<path d="M0 0 C11.52558846 0.91472924 21.26314411 3.96894637 29.4375 12.5625 C33.64722749 19.12967489 33.69526496 25.37882642 33 33 C27.77512433 55.71828851 2.81868083 73.35997448 -15.75268555 85.13916016 C-17.82949097 86.43549211 -19.91341821 87.71948033 -22 89 C-23.62035156 90.01126953 -23.62035156 90.01126953 -25.2734375 91.04296875 C-60.75872682 112.29033334 -104.53420647 127.27955768 -146.1875 127.125 C-147.24130859 127.12886719 -148.29511719 127.13273437 -149.38085938 127.13671875 C-154.36086407 127.13044275 -159.10850253 127.06447095 -164 126 C-164 125.67 -164 125.34 -164 125 C-162.90051025 125.02356567 -162.90051025 125.02356567 -161.77880859 125.04760742 C-149.07862949 125.2823557 -136.4804182 125.44028506 -123.875 123.6875 C-123.0195459 123.56979248 -122.1640918 123.45208496 -121.28271484 123.33081055 C-116.09887639 122.5325505 -111.20608586 121.24200947 -106.20507812 119.67114258 C-103.76046055 118.92709323 -101.33267092 118.41641378 -98.8125 118 C-94.55159897 117.20066818 -90.98880726 115.71931347 -87 114 C-84.98578795 113.47396086 -82.96409424 112.97611255 -80.9375 112.5 C-76.57470314 111.47057602 -72.97913123 110.0890439 -69 108 C-67.68 108 -66.36 108 -65 108 C-65 107.34 -65 106.68 -65 106 C-53.76953125 101.5078125 -53.76953125 101.5078125 -51.80786133 100.72509766 C-50.26447059 100.10607396 -48.72550336 99.47604027 -47.1875 98.84375 C-44.81322532 97.92795834 -42.5042786 97.4293049 -40 97 C-40 96.34 -40 95.68 -40 95 C-39.32195312 94.70867187 -38.64390625 94.41734375 -37.9453125 94.1171875 C-27.38386597 89.46547005 -18.26643816 83.63590152 -9.08886719 76.69482422 C-6.40929929 74.68199339 -4.20270001 73.06756667 -1 72 C0.16412793 70.87011112 1.32066909 69.73134864 2.4375 68.5546875 C4.23902077 66.76217433 6.17153932 65.18805836 8.125 63.5625 C17.51002055 55.26036643 29.30842371 42.08105434 30.203125 29.0390625 C30.21859375 27.91242188 30.2340625 26.78578125 30.25 25.625 C30.27578125 24.50351563 30.3015625 23.38203125 30.328125 22.2265625 C29.96396428 18.64564874 29.1562444 16.85148207 27 14 C26.01 13.34 25.02 12.68 24 12 C24 11.34 24 10.68 24 10 C23.0409375 9.62875 23.0409375 9.62875 22.0625 9.25 C20.33878952 8.5464447 18.62308872 7.81870997 16.9453125 7.01171875 C11.85927513 4.59189128 7.6230605 3.40894985 2 3 C3.98 3.99 3.98 3.99 6 5 C5.34 5.33 4.68 5.66 4 6 C1.875 5.0625 1.875 5.0625 0 4 C0 2.68 0 1.36 0 0 Z " fill="#EAEAEA" transform="translate(249,140)"/>
<path d="M0 0 C1.7634375 -0.02126953 1.7634375 -0.02126953 3.5625 -0.04296875 C7.03613815 0.1899229 9.76451979 0.93966998 13 2.1875 C12.03709443 6.64270716 10.57456745 10.22247149 7 13.1875 C3.38833804 14.04957066 -0.11848002 13.89462321 -3.8125 13.75 C-11.25553683 13.48506988 -15.77180954 13.84700618 -21.64331055 18.69506836 C-23.22421824 20.09799916 -23.22421824 20.09799916 -23 22.1875 C-21.37446717 23.89430947 -19.70884005 25.56410195 -18 27.1875 C-20.9375 26.8125 -20.9375 26.8125 -24 26.1875 C-25.455276 23.27694799 -25.45067148 21.40658202 -25 18.1875 C-22.1875 16 -22.1875 16 -19 14.1875 C-18.29218384 13.40366943 -18.29218384 13.40366943 -17.57006836 12.60400391 C-15.54325205 10.77542542 -14.39134112 10.78182916 -11.69140625 10.7109375 C-10.44713867 10.66453125 -10.44713867 10.66453125 -9.17773438 10.6171875 C-8.31470703 10.59914063 -7.45167969 10.58109375 -6.5625 10.5625 C-4.8553614 10.51127304 -3.14831912 10.45670295 -1.44140625 10.3984375 C-0.68545166 10.38087402 0.07050293 10.36331055 0.84936523 10.34521484 C3.06530912 10.18271062 4.9090019 9.9487099 7 9.1875 C9.26325246 6.20986957 9.26325246 6.20986957 11 3.1875 C-4.96806626 2.58619207 -17.22027753 3.53403984 -30 14.1875 C-31.68547068 15.83514806 -33.35668078 17.49780846 -35 19.1875 C-33.95199219 19.86296875 -32.90398437 20.5384375 -31.82421875 21.234375 C-30.44506914 22.13504413 -29.06617629 23.03610651 -27.6875 23.9375 C-26.99720703 24.3809375 -26.30691406 24.824375 -25.59570312 25.28125 C-17.77806012 30.41747922 -17.77806012 30.41747922 -16.34057617 35.53515625 C-15.27299413 43.84928623 -22.6035133 53.40667381 -26.49072266 60.57519531 C-27.50416025 62.44517643 -28.50849872 64.31983346 -29.51171875 66.1953125 C-37.62436626 81.27041084 -37.62436626 81.27041084 -42 84.1875 C-48.26661116 85.32688385 -51.22097739 83.71515856 -56.5 80.1875 C-58.34589604 78.87161372 -60.18356845 77.54376889 -62 76.1875 C-61.01 75.6925 -61.01 75.6925 -60 75.1875 C-57.20424622 76.86403863 -54.58471212 78.74166037 -51.921875 80.62109375 C-48.57988818 82.41272038 -46.73384859 82.7942504 -43 82.1875 C-41.28315395 80.62704449 -41.28315395 80.62704449 -40.25 78.4375 C-39.86328125 77.74140625 -39.4765625 77.0453125 -39.078125 76.328125 C-37.53238024 73.26115318 -37.53238024 73.26115318 -36 70.1875 C-35.34 70.1875 -34.68 70.1875 -34 70.1875 C-33.75672974 69.37067749 -33.75672974 69.37067749 -33.50854492 68.53735352 C-31.67806097 62.69616745 -29.25575365 57.48106445 -26.3125 52.125 C-25.89677734 51.35478516 -25.48105469 50.58457031 -25.05273438 49.79101562 C-24.0415352 47.919716 -23.02168617 46.05309466 -22 44.1875 C-21.34 44.1875 -20.68 44.1875 -20 44.1875 C-19.35265305 40.67744096 -19.19622697 37.68216535 -20 34.1875 C-22.86996392 30.83040519 -26.31017599 28.5759338 -30 26.1875 C-30.88042969 25.58421875 -31.76085937 24.9809375 -32.66796875 24.359375 C-34.75974268 22.93603757 -36.86688274 21.54774869 -39 20.1875 C-35.04344794 10.98246052 -24.39378221 5.57185791 -15.5625 2.01953125 C-10.40503451 0.34492736 -5.39822367 0.02959552 0 0 Z " fill="#C9C9C9" transform="translate(114,92.8125)"/>
<path d="M0 0 C4.51818501 10.24121936 3.90917977 22.4733933 0.18847656 32.91967773 C-4.46536945 44.64960886 -11.93218498 53.40027867 -21 62 C-9.83898644 59.541589 0.64790305 56.11449844 11.25830078 51.8815918 C13.65401373 50.92592623 16.05490049 49.98432571 18.45703125 49.04492188 C20.00551879 48.43568432 21.55370749 47.82568654 23.1015625 47.21484375 C23.80785797 46.93664291 24.51415344 46.65844208 25.24185181 46.37181091 C28.3671396 45.12313146 31.35929553 43.81858154 34.36865234 42.29907227 C37 41 37 41 39 41 C39 41.66 39 42.32 39 43 C35.86138826 45.18751727 32.54139607 46.66619011 29.01171875 48.11328125 C26.65218369 49.15330932 24.40443713 50.35740223 22.125 51.5625 C18.25936112 53.52139946 14.84984667 54.56410728 10.6171875 55.33984375 C7.08905892 56.22977469 3.79097293 57.6101873 0.4375 59 C-7.41782847 62.25424011 -7.41782847 62.25424011 -11.3125 63.125 C-14.50125901 63.88165468 -17.12920457 64.84679395 -20.125 66.125 C-23.91291505 67.70329794 -26.83953792 68.43794338 -31 68 C-29.48527736 64.1309656 -27.21759208 62.40564242 -23.9375 59.9375 C-12.62046092 50.87201843 -3.31974471 38.65437652 -1 24 C-0.77958186 20.16125315 -0.8094313 16.34333428 -0.875 12.5 C-0.88402344 11.48679688 -0.89304688 10.47359375 -0.90234375 9.4296875 C-0.92570993 6.95287199 -0.95846832 4.47656621 -1 2 C-2.00417969 2.28875 -3.00835937 2.5775 -4.04296875 2.875 C-12.86007733 5.30446852 -20.77662346 6.56856431 -30 6 C-30.33 7.32 -30.66 8.64 -31 10 C-31.33 8.02 -31.66 6.04 -32 4 C-30.71029297 3.94392578 -30.71029297 3.94392578 -29.39453125 3.88671875 C-21.95456123 3.47293634 -15.04777065 2.52078697 -7.83984375 0.62109375 C-5.12285293 0.0268688 -2.76935488 -0.11687186 0 0 Z " fill="#D5D5D5" transform="translate(163,175)"/>
<path d="M0 0 C0.6796875 1.7109375 0.6796875 1.7109375 1 4 C-6.50058879 18.94872592 -23.02726819 33.15406493 -38.125 40 C-40.86717141 41.29104115 -41.96906217 41.96207621 -43.9375 44.375 C-46 46 -46 46 -48.0625 45.91015625 C-54.3970039 44.64950663 -58.96021149 42.7706125 -62.8125 37.4375 C-65.62320369 32.72078787 -65.49294869 28.34575471 -65 23 C-65.66 23 -66.32 23 -67 23 C-67.4021875 24.299375 -67.4021875 24.299375 -67.8125 25.625 C-69 29 -69 29 -70.625 31.5625 C-72.99825603 37.49564007 -73.40397301 44.46221087 -71.015625 50.48046875 C-69.79111577 52.49486202 -68.55833602 54.23251888 -67 56 C-66.40703125 56.68835938 -65.8140625 57.37671875 -65.203125 58.0859375 C-62.56413541 60.37867669 -60.34573208 61.09641986 -57 62.0625 C-53.04498379 63.21439847 -50.15638597 64.3216244 -47 67 C-56.0834967 66.56745254 -63.40233898 63.40915642 -70 57 C-74.34368043 50.46239284 -75.72977337 45.77729908 -75 38 C-73.13514046 29.43962067 -69.38463561 22.83667218 -64 16 C-63.01 16.33 -62.02 16.66 -61 17 C-61.11859375 18.01320312 -61.2371875 19.02640625 -61.359375 20.0703125 C-61.49076578 21.42176056 -61.62090796 22.77333042 -61.75 24.125 C-61.87181641 25.12273437 -61.87181641 25.12273437 -61.99609375 26.140625 C-62.3249897 29.86811247 -62.02730778 31.94602248 -60.328125 35.3046875 C-57.98664953 38.01545608 -56.19739728 39.44029401 -53 41 C-52.154375 41.433125 -51.30875 41.86625 -50.4375 42.3125 C-48.04334149 43.23097955 -48.04334149 43.23097955 -45.875 42.3125 C-43.97942527 41.06890981 -43.97942527 41.06890981 -42.51171875 39.49609375 C-40.72946656 37.73226277 -39.11416107 37.04892617 -36.8125 36.0625 C-20.80596983 28.27046478 -7.75928533 16.00542779 0 0 Z " fill="#EBEBEB" transform="translate(131,198)"/>
<path d="M0 0 C4.24572536 4.01928668 7.45477518 10.16165042 7.9609375 16.01171875 C8.13576161 26.13694858 6.30536945 33.80853882 -0.2734375 41.68359375 C-5.91349719 47.35722523 -11.6246232 49.77946452 -19.5546875 49.9140625 C-25.2129104 49.83129594 -29.45563096 49.03559998 -33.89453125 45.2578125 C-38.79793154 40.1745809 -41.14071244 34.13573014 -41.30078125 27.08203125 C-40.57841019 17.07642355 -36.86969069 8.91420442 -29.5546875 1.9765625 C-20.76721197 -5.34904094 -9.65230619 -6.68236582 0 0 Z M-33.7890625 8.3671875 C-39.52560736 15.85844019 -40.32146816 24.47348698 -39.2421875 33.6640625 C-37.58450346 38.51616771 -34.51820773 43.73310604 -30.37109375 46.8515625 C-24.48784618 49.09691203 -16.84689641 48.78791868 -10.88671875 46.9296875 C-4.17579135 43.31497164 1.10085894 36.90112945 3.8515625 29.8671875 C5.93036545 22.51969431 5.76149076 13.75431072 2.9140625 6.609375 C0.63892442 2.78160891 -2.16326227 0.4255688 -6.2421875 -1.3359375 C-17.10352131 -3.06564776 -26.44081152 0.27668894 -33.7890625 8.3671875 Z " fill="#C2C3C3" transform="translate(194.2421875,24.3359375)"/>
<path d="M0 0 C6.2218916 0 9.39641327 2.31610869 13.8515625 6.55078125 C22.59661098 16.52013652 24.90163694 28.00906626 24.18212891 40.93652344 C23.01231131 54.19027455 16.45674148 65.4078637 6.625 74.1875 C4.47330704 75.93630395 2.31314305 77.45790464 0 79 C-2.1875 78.625 -2.1875 78.625 -4 78 C-2.93072266 77.30777344 -2.93072266 77.30777344 -1.83984375 76.6015625 C5.10780377 71.87005557 9.69129879 67.1929411 14 60 C14.61488281 59.01966797 14.61488281 59.01966797 15.2421875 58.01953125 C21.68097354 47.37438499 22.05513553 32.94372597 19.1953125 20.94921875 C16.19049407 12.13163089 10.68541605 6.2607718 2.4375 2 C1.633125 1.67 0.82875 1.34 0 1 C0 0.67 0 0.34 0 0 Z " fill="#C4C5C5" transform="translate(209,132)"/>
<path d="M0 0 C1.7634375 -0.02126953 1.7634375 -0.02126953 3.5625 -0.04296875 C7.03613815 0.1899229 9.76451979 0.93966998 13 2.1875 C12.03709443 6.64270716 10.57456745 10.22247149 7 13.1875 C3.38833804 14.04957066 -0.11848002 13.89462321 -3.8125 13.75 C-11.25553683 13.48506988 -15.77180954 13.84700618 -21.64331055 18.69506836 C-23.22421824 20.09799916 -23.22421824 20.09799916 -23 22.1875 C-21.37446717 23.89430947 -19.70884005 25.56410195 -18 27.1875 C-20.9375 26.8125 -20.9375 26.8125 -24 26.1875 C-25.455276 23.27694799 -25.45067148 21.40658202 -25 18.1875 C-22.1875 16 -22.1875 16 -19 14.1875 C-18.52812256 13.66494629 -18.05624512 13.14239258 -17.57006836 12.60400391 C-15.54325205 10.77542542 -14.39134112 10.78182916 -11.69140625 10.7109375 C-10.44713867 10.66453125 -10.44713867 10.66453125 -9.17773438 10.6171875 C-8.31470703 10.59914063 -7.45167969 10.58109375 -6.5625 10.5625 C-4.8553614 10.51127304 -3.14831912 10.45670295 -1.44140625 10.3984375 C-0.68545166 10.38087402 0.07050293 10.36331055 0.84936523 10.34521484 C3.06530912 10.18271062 4.9090019 9.9487099 7 9.1875 C9.26325246 6.20986957 9.26325246 6.20986957 11 3.1875 C-5.25406948 2.57542207 -16.79898066 3.79023698 -30 14.1875 C-30.66 13.8575 -31.32 13.5275 -32 13.1875 C-27.66215686 8.72916121 -23.93487853 5.36111238 -18.125 3.0625 C-17.30257812 2.72992188 -16.48015625 2.39734375 -15.6328125 2.0546875 C-10.45067114 0.34781008 -5.4312512 0.0297766 0 0 Z " fill="#D2D3D2" transform="translate(114,92.8125)"/>
<path d="M0 0 C1.9375 0.8125 1.9375 0.8125 4 2 C4.495 3.485 4.495 3.485 5 5 C5.99 5.33 6.98 5.66 8 6 C8 10.62 8 15.24 8 20 C7.34 20 6.68 20 6 20 C5.74476563 20.87914062 5.48953125 21.75828125 5.2265625 22.6640625 C-2.46175282 43.57432138 -27.87531447 57.95710204 -46.3125 68.296875 C-48.53111494 69.22129789 -49.78196964 68.7921537 -52 68 C-51.34 67.01 -50.68 66.02 -50 65 C-49.01 65.33 -48.02 65.66 -47 66 C-44.41856847 64.65487467 -42.0569171 63.26801809 -39.625 61.6875 C-38.91182617 61.23109131 -38.19865234 60.77468262 -37.46386719 60.30444336 C-22.14731255 50.36370577 -0.71523709 36.22788633 5 18 C5.74224072 13.07978577 5.89081215 8.74764828 3.0625 4.5 C2.0415625 3.2625 2.0415625 3.2625 1 2 C0.505 1.01 0.505 1.01 0 0 Z " fill="#F2F3F3" transform="translate(255,146)"/>
<path d="M0 0 C2.55796865 4.83171856 2.36964079 9.81762428 1.6875 15.1875 C1.0275 15.8475 0.3675 16.5075 -0.3125 17.1875 C-0.36148438 16.20007813 -0.41046875 15.21265625 -0.4609375 14.1953125 C-0.57308594 12.27332031 -0.57308594 12.27332031 -0.6875 10.3125 C-0.79191406 8.39824219 -0.79191406 8.39824219 -0.8984375 6.4453125 C-0.98491106 3.10688301 -0.98491106 3.10688301 -3.3125 1.1875 C-6.46561547 0.71453268 -8.29985112 0.45972527 -11.3125 1.1875 C-14.45354458 3.63632385 -16.47675524 6.96095629 -18.69921875 10.22265625 C-24.65626827 18.69309105 -33.50974598 23.98479925 -43.3125 27.1875 C-48.06849312 27.74597017 -52.72020806 27.66748597 -57.5 27.5 C-58.73814453 27.47744141 -59.97628906 27.45488281 -61.25195312 27.43164062 C-64.27344453 27.37331068 -67.29229521 27.29151256 -70.3125 27.1875 C-70.3125 26.8575 -70.3125 26.5275 -70.3125 26.1875 C-69.08015625 26.15011719 -67.8478125 26.11273438 -66.578125 26.07421875 C-51.91443362 25.53540713 -36.34325554 24.42142417 -24.921875 14.0078125 C-22.00160255 10.7955128 -19.41883683 7.45575925 -17.0625 3.8125 C-14.91498804 0.59123206 -12.97904539 -1.16738566 -9.375 -2.5625 C-5.41700407 -3.04225708 -3.15656142 -2.47406166 0 0 Z " fill="#DDDDDD" transform="translate(251.3125,51.8125)"/>
<path d="M0 0 C0.33 0 0.66 0 1 0 C1.8898806 8.36487766 -2.37348683 13.92802756 -7.125 20.5 C-15.13022438 30.38171784 -27.85547925 40.25533183 -40.875 41.9375 C-41.90625 41.958125 -42.9375 41.97875 -44 42 C-43 40 -43 40 -40.953125 39.2109375 C-40.06109375 38.93507812 -39.1690625 38.65921875 -38.25 38.375 C-21.36687912 32.51219301 -10.39940107 21.36840533 -1.91015625 5.97265625 C-0.99773841 3.99509827 -0.45185359 2.12609005 0 0 Z " fill="#B9B9B9" transform="translate(250,65)"/>
<path d="M0 0 C0 0.66 0 1.32 0 2 C-3.13861174 4.18751727 -6.45860393 5.66619011 -9.98828125 7.11328125 C-12.34781631 8.15330932 -14.59556287 9.35740223 -16.875 10.5625 C-20.74063888 12.52139946 -24.15015333 13.56410728 -28.3828125 14.33984375 C-32.59222469 15.40162085 -36.53152651 17.1579136 -40.53271484 18.81689453 C-44.99585011 20.64958292 -49.29448446 21.98508488 -54 23 C-54.66 23.33 -55.32 23.66 -56 24 C-58.6723621 24.13415472 -61.32250488 24.04318541 -64 24 C-61.83341362 21.83341362 -60.97379407 21.56351071 -58.08984375 20.84375 C-56.87083374 20.52470703 -56.87083374 20.52470703 -55.62719727 20.19921875 C-54.73959717 19.96847656 -53.85199707 19.73773438 -52.9375 19.5 C-36.1858085 14.93813586 -20.22244019 7.99818816 -4.37890625 0.9609375 C-2 0 -2 0 0 0 Z " fill="#F2F3F3" transform="translate(202,216)"/>
<path d="M0 0 C-3.40254834 1.13418278 -4.57357424 0.53742647 -7.86767578 -0.484375 C-22.13761154 -3.93503957 -35.99754134 -0.8089688 -49 5 C-51.31950991 5.74848625 -53.64124972 6.38022633 -56 7 C-55 4 -55 4 -53.31689453 3.04858398 C-52.59614746 2.78376221 -51.87540039 2.51894043 -51.1328125 2.24609375 C-50.33480225 1.94968994 -49.53679199 1.65328613 -48.71459961 1.34790039 C-47.86003174 1.04746826 -47.00546387 0.74703613 -46.125 0.4375 C-45.25818604 0.1273999 -44.39137207 -0.1827002 -43.49829102 -0.50219727 C-29.03601194 -5.55189459 -13.91500693 -7.84949109 0 0 Z " fill="#CDCDCD" transform="translate(214,132)"/>
<path d="M0 0 C11.52558846 0.91472924 21.26314411 3.96894637 29.4375 12.5625 C32.44058147 17.24730709 33.27578547 20.99928387 33.25 26.5625 C33.25773437 28.23505859 33.25773437 28.23505859 33.265625 29.94140625 C33.01167605 32.86555372 32.52132851 34.53085968 31 37 C30.96261719 35.75863281 30.92523438 34.51726562 30.88671875 33.23828125 C30.8210405 31.59632489 30.7545938 29.95439913 30.6875 28.3125 C30.66494141 27.49587891 30.64238281 26.67925781 30.61914062 25.83789062 C30.40943757 21.12910394 30.06315767 17.80530039 27 14 C26.01 13.34 25.02 12.68 24 12 C24 11.34 24 10.68 24 10 C23.360625 9.7525 22.72125 9.505 22.0625 9.25 C20.33878952 8.5464447 18.62308872 7.81870997 16.9453125 7.01171875 C11.85927513 4.59189128 7.6230605 3.40894985 2 3 C3.32 3.66 4.64 4.32 6 5 C5.01 5.495 5.01 5.495 4 6 C1.875 5.0625 1.875 5.0625 0 4 C0 2.68 0 1.36 0 0 Z " fill="#F2F2F2" transform="translate(249,140)"/>
<path d="M0 0 C0 0.33 0 0.66 0 1 C-1.16015625 1.03867187 -1.16015625 1.03867187 -2.34375 1.078125 C-12.30249505 1.6204329 -18.79737977 4.1247716 -26 11 C-32.14394346 18.85059442 -33.17914788 27.24844704 -32 37 C-30.14968542 41.91756682 -27.15443134 45.84651123 -24 50 C-27.87194504 48.47887873 -29.75108097 46.4821972 -32 43 C-35.58934171 34.71803533 -35.60851768 27.23870333 -32.6875 18.75 C-29.44694154 11.04981584 -24.28385575 4.78949501 -16.83203125 0.85546875 C-11.07362359 -1.37655121 -6.01220232 -1.04178036 0 0 Z " fill="#E0E0E0" transform="translate(188,21)"/>
<path d="M0 0 C0.33 0 0.66 0 1 0 C1.60604976 7.52603605 -2.36322526 11.46035493 -7 17 C-10.7374101 21.06187979 -14.39672354 24.93114902 -19 28 C-18.01 28.66 -17.02 29.32 -16 30 C-19.4019487 32.09350689 -22.05272412 32.17942163 -26 32 C-24.48527736 28.1309656 -22.21759208 26.40564242 -18.9375 23.9375 C-10.65445797 17.32845859 -4.22925024 9.7456636 0 0 Z " fill="#B3B3B3" transform="translate(158,211)"/>
<path d="M0 0 C3.81889162 1.27296387 4.98227087 3.21735399 7.40234375 6.30859375 C11.3045682 10.43979958 15.82148385 10.45733217 21.25 10.75 C22.33861328 10.83314453 22.33861328 10.83314453 23.44921875 10.91796875 C30.00842367 11.30380433 35.2800512 9.8112128 41.5625 7.9375 C45.03747915 6.98977841 48.42813623 6.43737107 52 6 C49.14521674 7.90318884 47.58058692 8.4619099 44.3125 9.125 C43.50425781 9.29257813 42.69601563 9.46015625 41.86328125 9.6328125 C41.24839844 9.75398437 40.63351563 9.87515625 40 10 C40 10.66 40 11.32 40 12 C30.04454829 14.65478712 19.39000364 15.84224098 9.94140625 10.9296875 C5.79077089 8.50784889 2.65946665 6.10001108 0 2 C0 1.34 0 0.68 0 0 Z " fill="#A9A9A9" transform="translate(114,162)"/>
<path d="M0 0 C-19.73340216 10.74742487 -54.21246566 13.6395942 -76 9 C-76 8.67 -76 8.34 -76 8 C-74.90051025 8.02356567 -74.90051025 8.02356567 -73.77880859 8.04760742 C-61.07862949 8.2823557 -48.4804182 8.44028506 -35.875 6.6875 C-35.0195459 6.56979248 -34.1640918 6.45208496 -33.28271484 6.33081055 C-28.10359068 5.53327645 -23.2069335 4.25145888 -18.20947266 2.68432617 C-12.25294625 0.83944844 -6.25073008 -0.32898579 0 0 Z " fill="#F2F2F3" transform="translate(161,257)"/>
<path d="M0 0 C-1 3 -1 3 -2.61962891 3.99560547 C-3.66256104 4.42703857 -3.66256104 4.42703857 -4.7265625 4.8671875 C-5.89300293 5.35638672 -5.89300293 5.35638672 -7.08300781 5.85546875 C-7.92186523 6.19191406 -8.76072266 6.52835938 -9.625 6.875 C-10.47932617 7.22433594 -11.33365234 7.57367188 -12.21386719 7.93359375 C-33.09006656 16.36182471 -33.09006656 16.36182471 -42 16 C-37.81849983 13.21233322 -33.37088873 12.37578726 -28.54296875 11.09765625 C-24.97935044 10.10341933 -24.97935044 10.10341933 -21.80078125 8.37109375 C-19 7 -19 7 -15 7 C-15 6.34 -15 5.68 -15 5 C-12.8765984 4.16260219 -10.7512272 3.33019717 -8.625 2.5 C-7.44164062 2.0359375 -6.25828125 1.571875 -5.0390625 1.09375 C-2 0 -2 0 0 0 Z " fill="#EAEBEB" transform="translate(199,241)"/>
<path d="M0 0 C0.8353125 0.37125 0.8353125 0.37125 1.6875 0.75 C0.883125 1.36875 0.07875 1.9875 -0.75 2.625 C-3.35124519 4.49164041 -3.35124519 4.49164041 -4.3125 6.75 C8.8875 6.42 22.0875 6.09 35.6875 5.75 C35.6875 6.08 35.6875 6.41 35.6875 6.75 C25.90306089 8.08804295 16.25877357 8.9444439 6.375 8.9375 C5.48659424 8.93814453 4.59818848 8.93878906 3.68286133 8.93945312 C-0.43701016 8.90468961 -4.29626594 8.78511187 -8.3125 7.75 C-7.98035849 4.65001254 -7.2579988 3.6954988 -5 1.4375 C-2.3125 -0.25 -2.3125 -0.25 0 0 Z " fill="#4C4C4C" transform="translate(94.3125,237.25)"/>
<path d="M0 0 C5.91665697 -0.36144252 10.40061139 0.86583367 15.9375 2.875 C25.10298568 6.12451061 33.23874588 8.2651381 43 8.625 C43.87011719 8.66367188 44.74023438 8.70234375 45.63671875 8.7421875 C47.75750486 8.83540887 49.87872185 8.91874136 52 9 C52 9.33 52 9.66 52 10 C47.854303 10.0879568 43.70884988 10.14071153 39.5625 10.1875 C38.39783203 10.21263672 37.23316406 10.23777344 36.03320312 10.26367188 C29.04604411 10.32271829 23.44335122 9.70442071 17 7 C15.98550781 6.63777344 14.97101563 6.27554688 13.92578125 5.90234375 C13.06339844 5.58394531 12.20101562 5.26554687 11.3125 4.9375 C7.56046458 3.56210499 3.80184122 2.23302958 0 1 C0 0.67 0 0.34 0 0 Z " fill="#CBCBCB" transform="translate(148,70)"/>
<path d="M0 0 C0.6796875 1.7109375 0.6796875 1.7109375 1 4 C-6.21515526 18.3798549 -20.55074732 29.7611571 -34 38 C-34.99 38 -35.98 38 -37 38 C-34.31399883 35.17908553 -31.60631874 32.91824645 -28.375 30.75 C-16.06713792 22.22499553 -6.79530885 13.52527819 0 0 Z " fill="#E0E0E0" transform="translate(131,198)"/>
<path d="M0 0 C0 0.99 0 1.98 0 3 C-0.62455078 2.99887207 -1.24910156 2.99774414 -1.89257812 2.99658203 C-4.7627748 3.00879789 -7.63038642 3.06658547 -10.5 3.125 C-11.48226562 3.12242188 -12.46453125 3.11984375 -13.4765625 3.1171875 C-19.89136785 3.28824898 -23.6749469 4.42415533 -28.65429688 8.52294922 C-30.22449172 9.9133786 -30.22449172 9.9133786 -30 12 C-28.37446717 13.70680947 -26.70884005 15.37660195 -25 17 C-27.9375 16.625 -27.9375 16.625 -31 16 C-32.455276 13.08944799 -32.45067148 11.21908202 -32 8 C-29.1875 5.8125 -29.1875 5.8125 -26 4 C-25.52812256 3.47817139 -25.05624512 2.95634277 -24.57006836 2.41870117 C-22.54810076 0.59166747 -21.38690565 0.58178507 -18.69140625 0.48828125 C-17.86189453 0.45283203 -17.03238281 0.41738281 -16.17773438 0.38085938 C-15.31470703 0.35830078 -14.45167969 0.33574219 -13.5625 0.3125 C-12.27375977 0.26125977 -12.27375977 0.26125977 -10.95898438 0.20898438 C-7.30189619 0.06996396 -3.66039707 0 0 0 Z " fill="#EEEEEE" transform="translate(121,103)"/>
<path d="M0 0 C0.66 0 1.32 0 2 0 C1.34 4.29 0.68 8.58 0 13 C1.13179687 12.55527344 2.26359375 12.11054688 3.4296875 11.65234375 C4.91130333 11.08032751 6.39308271 10.50873478 7.875 9.9375 C8.62136719 9.64294922 9.36773437 9.34839844 10.13671875 9.04492188 C12.06975563 8.30479514 14.03365032 7.64644265 16 7 C16.66 7.33 17.32 7.66 18 8 C15.44007491 11.83988763 13.44113768 12.19345234 9.125 13.6875 C7.27261719 14.34298828 7.27261719 14.34298828 5.3828125 15.01171875 C2 16 2 16 -2 16 C-2.05423638 14.08364783 -2.09289963 12.16685075 -2.125 10.25 C-2.14820313 9.18265625 -2.17140625 8.1153125 -2.1953125 7.015625 C-2.00487687 4.07529894 -1.52670104 2.47638122 0 0 Z " fill="#C6C6C7" transform="translate(141,130)"/>
<path d="M0 0 C0 0.66 0 1.32 0 2 C-3.13374683 4.18412658 -6.44726535 5.66291273 -9.97265625 7.10546875 C-13.26369783 8.55758536 -16.40830375 10.29938494 -19.5703125 12.01171875 C-22.23141661 13.09412927 -24.15511 13.18729703 -27 13 C-26 10 -26 10 -23.89868164 8.84912109 C-22.99496826 8.49414551 -22.09125488 8.13916992 -21.16015625 7.7734375 C-20.17982422 7.3815625 -19.19949219 6.9896875 -18.18945312 6.5859375 C-16.64161133 5.98652344 -16.64161133 5.98652344 -15.0625 5.375 C-13.03243408 4.57061024 -11.00248055 3.76593676 -8.97265625 2.9609375 C-8.06781494 2.60821777 -7.16297363 2.25549805 -6.23071289 1.89208984 C-1.49945265 0 -1.49945265 0 0 0 Z " fill="#EBECEC" transform="translate(202,216)"/>
<path d="M0 0 C-1.50858596 4.52575788 -4.64769235 5.57370385 -8.78540039 7.64282227 C-19.3561448 12.15711895 -31.77476485 10.55655247 -43 10 C-43 9.67 -43 9.34 -43 9 C-41.15148437 8.94392578 -41.15148437 8.94392578 -39.265625 8.88671875 C-26.46850422 8.41529359 -15.38193575 7.25319776 -3.9609375 0.98828125 C-2 0 -2 0 0 0 Z " fill="#EFEFEF" transform="translate(224,69)"/>
<path d="M0 0 C3.4375 0.8125 3.4375 0.8125 7 2 C7.33 2.99 7.66 3.98 8 5 C8.7425 5.0825 9.485 5.165 10.25 5.25 C13 6 13 6 14.59375 7.65625 C18.10632497 11.07758926 22.15467972 13.57524394 26.25 16.25 C27.09046875 16.80429688 27.9309375 17.35859375 28.796875 17.9296875 C30.86185075 19.29069425 32.92958185 20.64729288 35 22 C34.01 22.495 34.01 22.495 33 23 C30.8203125 21.84765625 30.8203125 21.84765625 28.125 20.0625 C27.13886719 19.41410156 26.15273438 18.76570313 25.13671875 18.09765625 C24.10160156 17.40542969 23.06648438 16.71320313 22 16 C20.49373047 15.00806641 20.49373047 15.00806641 18.95703125 13.99609375 C4.54287654 4.46746108 4.54287654 4.46746108 0 1 C0 0.67 0 0.34 0 0 Z " fill="#DBDCDC" transform="translate(8,139)"/>
<path d="M0 0 C1.9375 0.8125 1.9375 0.8125 4 2 C4.33 2.99 4.66 3.98 5 5 C5.99 5.33 6.98 5.66 8 6 C8 10.62 8 15.24 8 20 C7.34 20 6.68 20 6 20 C5.7525 20.86625 5.505 21.7325 5.25 22.625 C3.93221387 26.18302254 2.19813178 28.9226155 0 32 C-1 29 -1 29 -0.0390625 27.0625 C0.66089844 26.0415625 0.66089844 26.0415625 1.375 25 C5.11582661 19.48280322 5.77860991 14.58744965 5 8 C3.92345063 5.59733754 2.6995377 4.0600457 1 2 C0.67 1.34 0.34 0.68 0 0 Z " fill="#EBEBEB" transform="translate(255,146)"/>
<path d="M0 0 C0.33 0 0.66 0 1 0 C1.309375 1.11375 1.61875 2.2275 1.9375 3.375 C2.82326483 6.7945155 2.82326483 6.7945155 4 9 C9.44788588 10.81596196 15.46386294 10.42868053 21 9 C20.67 9.99 20.34 10.98 20 12 C20.99 12.66 21.98 13.32 23 14 C21.35 14.33 19.7 14.66 18 15 C17.67 14.34 17.34 13.68 17 13 C15.89591797 13.06960937 15.89591797 13.06960937 14.76953125 13.140625 C6.72998756 13.43799253 6.72998756 13.43799253 2.875 11.125 C-0.39567892 7.41823056 -0.09009371 4.86506043 0 0 Z " fill="#C6C6C7" transform="translate(184,202)"/>
<path d="M0 0 C2.436237 3.65435551 2.21283073 6.17854588 1.9375 10.375 C1.89439697 11.07947266 1.85129395 11.78394531 1.80688477 12.50976562 C1.21412514 19.5815073 -1.01261534 25.56224117 -4 32 C-4.33 32 -4.66 32 -5 32 C-4.58735679 27.54345334 -3.93919475 23.61535916 -2.5 19.375 C-0.47195028 13.04352769 -0.27595203 6.60381762 0 0 Z " fill="#E4E4E4" transform="translate(164,183)"/>
<path d="M0 0 C0 3.49461413 -0.60708151 4.18146069 -2.6875 6.875 C-3.23019531 7.58140625 -3.77289063 8.2878125 -4.33203125 9.015625 C-6 11 -6 11 -8.875 13.625 C-11.26868291 15.85843589 -11.26868291 15.85843589 -11.4375 19.0625 C-11.0259149 21.82599999 -10.45355985 23.63796524 -9 26 C-9.99 25.67 -10.98 25.34 -12 25 C-13.61929579 21.76140842 -13.54657343 18.50285748 -13 15 C-11.73728084 12.39999981 -10.0555776 10.3178477 -8.1875 8.125 C-7.73568359 7.5578125 -7.28386719 6.990625 -6.81835938 6.40625 C-4.69507815 3.79011956 -2.82058265 1.88038843 0 0 Z " fill="#DEDEDF" transform="translate(17,113)"/>
<path d="M0 0 C0.33 0 0.66 0 1 0 C0.98428955 0.59312988 0.9685791 1.18625977 0.95239258 1.79736328 C0.68105943 13.62840455 0.71397534 24.53803303 4 36 C0.54768442 34.27384221 0.03675316 30.5933599 -1.171875 27.09375 C-3.57127022 18.12997162 -1.59662216 8.96674411 0 0 Z " fill="#AFAFAF" transform="translate(110,126)"/>
<path d="M0 0 C0.66 0.33 1.32 0.66 2 1 C-3.1647102 7.23327093 -10.67618561 10.80039445 -18.6875 11.8125 C-19.780625 11.874375 -20.87375 11.93625 -22 12 C-21 10 -21 10 -18.84765625 9.140625 C-17.92855469 8.84671875 -17.00945312 8.5528125 -16.0625 8.25 C-10.87889705 6.47025121 -6.55779807 4.08859297 -1.99609375 1.07421875 C-1.33738281 0.71972656 -0.67867187 0.36523438 0 0 Z " fill="#B7B7B7" transform="translate(228,95)"/>
<path d="M0 0 C5 5 5 5 6.296875 6.54296875 C8.64211985 8.54933648 10.99057792 9.12575859 13.9375 10 C17.90017314 11.17849015 20.83238093 12.3132484 24 15 C15.00850223 14.57183344 7.46812693 11.46812693 1 5 C0.1875 2.25 0.1875 2.25 0 0 Z " fill="#E6E6E6" transform="translate(60,250)"/>
<path d="M0 0 C-3.43402141 1.1446738 -3.79538815 0.87250961 -7 -0.375 C-15.03590124 -3.00166026 -23.6222123 -2.75055868 -32 -3 C-32 -3.33 -32 -3.66 -32 -4 C-20.79596995 -5.94852697 -10.09949015 -5.69714829 0 0 Z " fill="#ECECEC" transform="translate(214,132)"/>
<path d="M0 0 C0.66 0.33 1.32 0.66 2 1 C-2.20806887 5.7031358 -5.3041227 7.74417344 -11.65234375 8.18359375 C-16.66550917 8.29798813 -20.38118066 8.10477843 -25 6 C-21.97256201 4.48628101 -19.17194861 5.06479556 -15.8125 5.1875 C-9.73406617 5.31386326 -5.8436836 4.8057514 -1 1 C-0.67 0.67 -0.34 0.34 0 0 Z " fill="#B7B8B8" transform="translate(189,66)"/>
<path d="M0 0 C0.77085937 0.13277344 1.54171875 0.26554687 2.3359375 0.40234375 C3.13773438 0.55316406 3.93953125 0.70398438 4.765625 0.859375 C5.55195313 0.99472656 6.33828125 1.13007812 7.1484375 1.26953125 C11.87378074 2.10941784 16.42538055 3.21020958 21.015625 4.609375 C21.015625 4.939375 21.015625 5.269375 21.015625 5.609375 C18.63974876 5.49451075 16.26547329 5.36779344 13.890625 5.234375 C13.22546875 5.2034375 12.5603125 5.1725 11.875 5.140625 C7.59847368 4.88906463 4.02725701 4.06815028 0.015625 2.609375 C-2.31132464 2.23406054 -4.64414185 1.89020298 -6.984375 1.609375 C-3.74915388 -0.54743908 -3.53358714 -0.62859446 0 0 Z " fill="#E6E6E6" transform="translate(130.984375,64.390625)"/>
<path d="M0 0 C0.66 0 1.32 0 2 0 C0.07281035 9.05779135 -4.79321151 15.39472007 -12 21 C-13.8126505 23.16220617 -13.8126505 23.16220617 -15 25 C-14.49280863 20.56207554 -13.01168106 18.26265448 -10 15 C-9.175 14.401875 -8.35 13.80375 -7.5 13.1875 C-3.45142851 9.64499994 -1.67828059 5.03484176 0 0 Z " fill="#D8D9D8" transform="translate(199,177)"/>
<path d="M0 0 C3.33721114 1.14716633 6.03667883 2.65956838 8.9375 4.625 C11.56330039 6.2815784 13.15061526 7.03186092 16.25 7.6875 C20.19097206 6.70225699 20.96354229 4.37068862 23 1 C23.99 1 24.98 1 26 1 C25.12269491 3.70502403 24.28331029 5.68400006 22.375 7.8125 C18.74063239 9.62968381 15.87904759 10.00706043 12 9 C7.75314084 6.65798208 3.80856258 4.00241683 0 1 C0 0.67 0 0.34 0 0 Z " fill="#D7D7D7" transform="translate(52,168)"/>
<path d="M0 0 C0 4.54831541 -2.80605425 6.48686629 -5.8125 9.6875 C-6.35970703 10.29400391 -6.90691406 10.90050781 -7.47070312 11.52539062 C-8.00244141 12.09837891 -8.53417969 12.67136719 -9.08203125 13.26171875 C-9.81256714 14.05002075 -9.81256714 14.05002075 -10.55786133 14.85424805 C-12 16 -12 16 -15 16 C-13.2552611 13.89127247 -11.50454513 11.78804321 -9.75 9.6875 C-9.25886719 9.09259766 -8.76773437 8.49769531 -8.26171875 7.88476562 C-5.71900482 4.85046033 -3.33708173 2.20088486 0 0 Z " fill="#ECECEC" transform="translate(271,190)"/>
<path d="M0 0 C0 4.90312435 -3.70199631 7.61341357 -7 11 C-8.62541044 12.38332804 -10.27385413 13.74462118 -12 15 C-12.66 14.67 -13.32 14.34 -14 14 C-9.86117324 8.6348542 -5.3651458 4.13882676 0 0 Z " fill="#D0D0D0" transform="translate(243,82)"/>
<path d="M0 0 C0.66 0.33 1.32 0.66 2 1 C-3.20704182 7.0989888 -8.31851737 12.52140401 -15 17 C-13.67879172 14.06769807 -12.25361803 12.01335101 -9.9609375 9.765625 C-9.38085938 9.19199219 -8.80078125 8.61835937 -8.203125 8.02734375 C-7.59984375 7.44082031 -6.9965625 6.85429688 -6.375 6.25 C-5.76398438 5.64800781 -5.15296875 5.04601562 -4.5234375 4.42578125 C-3.02011376 2.94594695 -1.51065144 1.47235324 0 0 Z " fill="#353637" transform="translate(78,80)"/>
<path d="M0 0 C0 0.33 0 0.66 0 1 C-1.00160156 1.01417969 -2.00320312 1.02835937 -3.03515625 1.04296875 C-10.71768966 1.27542205 -16.09126444 1.64091426 -22 7 C-22.66 7 -23.32 7 -24 7 C-23.67 7.99 -23.34 8.98 -23 10 C-23.99 9.67 -24.98 9.34 -26 9 C-24.71244272 5.13732817 -23.10296226 3.63363918 -19.875 1.23046875 C-13.70707157 -1.40933758 -6.57245009 -0.40330944 0 0 Z " fill="#BABABA" transform="translate(116,106)"/>
<path d="M0 0 C0.99 0.33 1.98 0.66 3 1 C2.89300781 2.01320312 2.78601563 3.02640625 2.67578125 4.0703125 C2.55377262 5.42179272 2.43273011 6.7733604 2.3125 8.125 C2.23966797 8.79015625 2.16683594 9.4553125 2.09179688 10.140625 C1.68977035 14.96494326 2.50528158 17.88275263 5 22 C4.01 22 3.02 22 2 22 C-0.08603004 18.57825111 -0.24161837 15.9078202 -0.1875 11.9375 C-0.18105469 10.89464844 -0.17460938 9.85179687 -0.16796875 8.77734375 C0 6 0 6 1 3 C0.34 2.67 -0.32 2.34 -1 2 C-0.67 1.34 -0.34 0.68 0 0 Z " fill="#F3F3F3" transform="translate(67,214)"/>
<path d="M0 0 C1.65 0 3.3 0 5 0 C7.4662586 4.69718718 7.05341417 8.70151898 6.625 13.8125 C6.56828125 14.60076172 6.5115625 15.38902344 6.453125 16.20117188 C6.31249026 18.13489961 6.15766112 20.06758595 6 22 C5.67 22 5.34 22 5 22 C4.67 15.4 4.34 8.8 4 2 C2.35 2.33 0.7 2.66 -1 3 C-0.67 2.01 -0.34 1.02 0 0 Z " fill="#BEBFBF" transform="translate(158,175)"/>
<path d="M0 0 C0 3 0 3 -1.64453125 4.75390625 C-2.71767578 5.64916016 -2.71767578 5.64916016 -3.8125 6.5625 C-4.52019531 7.16191406 -5.22789062 7.76132813 -5.95703125 8.37890625 C-8 10 -8 10 -11 12 C-12.32 11.67 -13.64 11.34 -15 11 C-10.05 7.37 -5.1 3.74 0 0 Z " fill="#CCCDCD" transform="translate(220,199)"/>
<path d="M0 0 C0.33 0 0.66 0 1 0 C1.61469817 5.04052499 0.43602361 7.59083523 -2.5546875 11.453125 C-4.45724802 13.48937896 -6.50312325 14.78723129 -9 16 C-7.48107864 12.84475273 -5.75515029 9.86720072 -3.9375 6.875 C-1.87361481 3.48988716 -1.87361481 3.48988716 0 0 Z " fill="#B6B7B7" transform="translate(226,186)"/>
<path d="M0 0 C1.8871875 0.061875 1.8871875 0.061875 3.8125 0.125 C4.1425 0.785 4.4725 1.445 4.8125 2.125 C2.1725 1.795 -0.4675 1.465 -3.1875 1.125 C-3.43242188 1.71796875 -3.67734375 2.3109375 -3.9296875 2.921875 C-5.39702109 5.49198726 -6.91042225 6.67029966 -9.3125 8.375 C-10.03695313 8.89578125 -10.76140625 9.4165625 -11.5078125 9.953125 C-12.06210937 10.33984375 -12.61640625 10.7265625 -13.1875 11.125 C-10.38175102 5.26410212 -7.08815377 -0.23239848 0 0 Z " fill="#4F5050" transform="translate(40.1875,90.875)"/>
<path d="M0 0 C0.33 0 0.66 0 1 0 C1.61469817 5.04052499 0.43602361 7.59083523 -2.5546875 11.453125 C-4.45724802 13.48937896 -6.50312325 14.78723129 -9 16 C-7.48107864 12.84475273 -5.75515029 9.86720072 -3.9375 6.875 C-1.87361481 3.48988716 -1.87361481 3.48988716 0 0 Z " fill="#BCBCBC" transform="translate(158,211)"/>
<path d="M0 0 C0.99 0.33 1.98 0.66 3 1 C2.4225 1.40992187 1.845 1.81984375 1.25 2.2421875 C0.5075 2.78101562 -0.235 3.31984375 -1 3.875 C-1.7425 4.40867187 -2.485 4.94234375 -3.25 5.4921875 C-3.8275 5.98976563 -4.405 6.48734375 -5 7 C-5.22988506 9.36278736 -5.22988506 9.36278736 -2.5 11.625 C-1.675 12.40875 -0.85 13.1925 0 14 C-2.9375 13.625 -2.9375 13.625 -6 13 C-7.455276 10.08944799 -7.45067148 8.21908202 -7 5 C-4.0625 2.6875 -4.0625 2.6875 -1 1 C-0.67 0.67 -0.34 0.34 0 0 Z " fill="#F4F4F4" transform="translate(96,106)"/>
<path d="M0 0 C3.27358823 1.09119608 3.83094239 1.75639646 5.875 4.375 C9.64582933 8.91861658 13.08214603 11.15459229 19 12 C19 12.33 19 12.66 19 13 C13.45075253 13.85373038 10.40550476 11.7609039 6.05859375 8.66015625 C3.60085288 6.67810716 1.70157452 4.66333403 0 2 C0 1.34 0 0.68 0 0 Z " fill="#D5D5D5" transform="translate(114,162)"/>
<path d="M0 0 C4.97093824 0.41153737 9.44508386 0.79600832 14 3 C13.0409375 3.1546875 13.0409375 3.1546875 12.0625 3.3125 C11.381875 3.539375 10.70125 3.76625 10 4 C9.67 4.99 9.34 5.98 9 7 C7.88625 6.071875 7.88625 6.071875 6.75 5.125 C4.51198812 3.39562719 2.56260013 2.13893339 0 1 C0 0.67 0 0.34 0 0 Z " fill="#C2C3C4" transform="translate(250,142)"/>
<path d="M0 0 C0.66 0.33 1.32 0.66 2 1 C0.71937515 2.7074998 -0.61767557 4.37373596 -2 6 C-2.66 6 -3.32 6 -4 6 C-4 9.3 -4 12.6 -4 16 C-4.66 15.67 -5.32 15.34 -6 15 C-6.7230444 8.13107822 -6.7230444 8.13107822 -4.6640625 4.91015625 C-3.16989578 3.19502121 -1.64681923 1.56839927 0 0 Z " fill="#3F403F" transform="translate(191,193)"/>
<path d="M0 0 C0.66 0 1.32 0 2 0 C2 0.66 2 1.32 2 2 C2.886875 1.896875 3.77375 1.79375 4.6875 1.6875 C9.02352461 2.09655893 10.11663528 3.88284896 13 7 C13.99 7 14.98 7 16 7 C16 7.66 16 8.32 16 9 C11.45230212 8.46497672 8.73821848 6.54517003 5 4 C4.236875 3.814375 3.47375 3.62875 2.6875 3.4375 C1.8521875 3.2209375 1.8521875 3.2209375 1 3 C0.67 2.01 0.34 1.02 0 0 Z " fill="#AAABAB" transform="translate(45,93)"/>
<path d="M0 0 C2.63885477 1.05188318 3.91166278 2.03450615 6 4 C4.25 4.6875 4.25 4.6875 2 5 C1.4534375 4.5153125 0.906875 4.030625 0.34375 3.53125 C-2.93637912 1.38823231 -5.97450091 1.67332754 -9.75 1.8125 C-10.44738281 1.82603516 -11.14476562 1.83957031 -11.86328125 1.85351562 C-13.57585541 1.8887055 -15.28802941 1.94250845 -17 2 C-11.9273159 -1.3817894 -5.92314305 -0.58349405 0 0 Z " fill="#B9B9B9" transform="translate(190,22)"/>
<path d="M0 0 C0 3 0 3 -2.1875 5.48046875 C-3.115625 6.37378906 -4.04375 7.26710937 -5 8.1875 C-5.928125 9.08855469 -6.85625 9.98960937 -7.8125 10.91796875 C-8.534375 11.60503906 -9.25625 12.29210937 -10 13 C-10.66 12.67 -11.32 12.34 -12 12 C-10.75479583 10.55834372 -9.50362077 9.12184348 -8.25 7.6875 C-7.55390625 6.88699219 -6.8578125 6.08648437 -6.140625 5.26171875 C-4.20854665 3.22034399 -2.30056874 1.60107149 0 0 Z " fill="#E1E2E2" transform="translate(152,224)"/>
<path d="M0 0 C3.90181526 1.2654536 5.94481034 2.40341809 8 6 C8.97439575 8.99814077 9.25605044 10.36840892 8.0625 13.3125 C7.5365625 14.1478125 7.5365625 14.1478125 7 15 C7 12.36 7 9.72 7 7 C6.401875 6.773125 5.80375 6.54625 5.1875 6.3125 C2.43648112 4.66188867 1.47515363 2.8027919 0 0 Z " fill="#DCDDDD" transform="translate(89,120)"/>
<path d="M0 0 C-0.33 0.99 -0.66 1.98 -1 3 C-3.65234375 4.16796875 -3.65234375 4.16796875 -6.9375 5.1875 C-8.01902344 5.53167969 -9.10054687 5.87585938 -10.21484375 6.23046875 C-13 7 -13 7 -15 7 C-15 6.34 -15 5.68 -15 5 C-12.8765984 4.16260219 -10.7512272 3.33019717 -8.625 2.5 C-7.44164062 2.0359375 -6.25828125 1.571875 -5.0390625 1.09375 C-2 0 -2 0 0 0 Z " fill="#DDDDDD" transform="translate(199,241)"/>
<path d="M0 0 C0.33 0 0.66 0 1 0 C1.32712342 6.13053511 1.39366878 10.62669111 -2 16 C-2.99 16 -3.98 16 -5 16 C-4.34 14.02 -3.68 12.04 -3 10 C-2.34 10 -1.68 10 -1 10 C-0.67 6.7 -0.34 3.4 0 0 Z " fill="#BDBDBE" transform="translate(95,127)"/>
<path d="M0 0 C0 0.33 0 0.66 0 1 C-0.60328125 0.95359375 -1.2065625 0.9071875 -1.828125 0.859375 C-7.08413333 0.52189688 -7.08413333 0.52189688 -11.5625 3 C-12.036875 3.66 -12.51125 4.32 -13 5 C-13.99 4.67 -14.98 4.34 -16 4 C-11.52996425 -2.31970572 -7.18105263 -1.27020371 0 0 Z " fill="#BABABA" transform="translate(169,107)"/>
<path d="M0 0 C0.66 0.33 1.32 0.66 2 1 C-3.64524422 6.80205656 -3.64524422 6.80205656 -7 9 C-7.66 9 -8.32 9 -9 9 C-7.48328036 4.44984107 -3.83108947 2.49942736 0 0 Z " fill="#E4E5E5" transform="translate(242,215)"/>
<path d="M0 0 C0 3.60573896 -0.81707462 4.41336566 -3 7.1875 C-3.556875 7.90292969 -4.11375 8.61835937 -4.6875 9.35546875 C-5.120625 9.89816406 -5.55375 10.44085938 -6 11 C-6.33 10.34 -6.66 9.68 -7 9 C-5.34090818 4.89593075 -3.78295966 2.34804392 0 0 Z " fill="#9A9B9B" transform="translate(17,113)"/>
<path d="M0 0 C-3.3 2.31 -6.6 4.62 -10 7 C-10.66 6.67 -11.32 6.34 -12 6 C-4.43243243 -2.21621622 -4.43243243 -2.21621622 0 0 Z " fill="#D3D3D3" transform="translate(94,100)"/>
<path d="M0 0 C0.86625 0.3403125 0.86625 0.3403125 1.75 0.6875 C0.945625 1.30625 0.14125 1.925 -0.6875 2.5625 C-3.28874519 4.42914041 -3.28874519 4.42914041 -4.25 6.6875 C-5.24 6.6875 -6.23 6.6875 -7.25 6.6875 C-6.87492618 3.96821483 -6.40781339 2.84531339 -4.4375 0.875 C-2.25 -0.3125 -2.25 -0.3125 0 0 Z " fill="#343536" transform="translate(94.25,237.3125)"/>
<path d="M0 0 C0 0.33 0 0.66 0 1 C-2.01822917 0.96744792 -4.03645833 0.93489583 -6.0546875 0.90234375 C-8.08185404 0.87350758 -8.08185404 0.87350758 -10 2 C-12.6723621 2.13415472 -15.32250488 2.04318541 -18 2 C-17 0 -17 0 -14.0625 -1.25 C-9.21540765 -2.56275418 -4.74873852 -1.24212476 0 0 Z " fill="#3F403F" transform="translate(173,78)"/>
<path d="M0 0 C0 0.33 0 0.66 0 1 C-3 2 -6 3 -9 4 C-9 6.64 -9 9.28 -9 12 C-9.33 12 -9.66 12 -10 12 C-10 8.7 -10 5.4 -10 2 C-6.00889681 0.0044484 -4.30013434 -0.19546065 0 0 Z " fill="#7F7F7F" transform="translate(163,79)"/>
<path d="M0 0 C4.54805635 -0.17835515 7.8794254 0.00214565 12 2 C12 2.99 12 3.98 12 5 C8 3.66666667 4 2.33333333 0 1 C0 0.67 0 0.34 0 0 Z " fill="#C8C8C8" transform="translate(148,70)"/>
<path d="M0 0 C0 0.66 0 1.32 0 2 C-3.73563279 4.71682385 -7.55619192 5.86726461 -12 7 C-11 4 -11 4 -9.00390625 2.83203125 C-8.19824219 2.49558594 -7.39257812 2.15914062 -6.5625 1.8125 C-5.75941406 1.46832031 -4.95632812 1.12414062 -4.12890625 0.76953125 C-2 0 -2 0 0 0 Z " fill="#EFF0EF" transform="translate(202,216)"/>
<path d="M0 0 C-4.96284034 2.37113483 -9.45949887 4.43174347 -15 5 C-13.61147985 2.22295969 -12.03211518 1.96617263 -9.1875 0.8125 C-7.87845703 0.26529297 -7.87845703 0.26529297 -6.54296875 -0.29296875 C-3.85198664 -1.04115271 -2.584628 -0.9458895 0 0 Z " fill="#BDBDBD" transform="translate(105,95)"/>
<path d="M0 0 C-1 2 -1 2 -2.625 2.625 C-5.7660575 3.12095645 -8.82601831 3.06103811 -12 3 C-8.52582963 0.68388642 -4.04642977 -2.02321489 0 0 Z " fill="#E1E2E2" transform="translate(169,254)"/>
<path d="M0 0 C-1.91197039 0.70045456 -3.82980435 1.384919 -5.75 2.0625 C-6.81734375 2.44535156 -7.8846875 2.82820312 -8.984375 3.22265625 C-11.92280042 3.98010011 -13.22348948 4.07151741 -16 3 C-13.2403139 1.16020927 -11.70258118 0.51676779 -8.5625 -0.1875 C-7.41974609 -0.45626953 -7.41974609 -0.45626953 -6.25390625 -0.73046875 C-3.87041504 -1.0154963 -2.26895796 -0.72875415 0 0 Z " fill="#646464" transform="translate(166,169)"/>
<path d="M0 0 C3.4375 0.8125 3.4375 0.8125 7 2 C7.33 2.99 7.66 3.98 8 5 C9.65 5.33 11.3 5.66 13 6 C12.01 6.495 12.01 6.495 11 7 C6.32815331 5.35620209 3.28896912 3.81520418 0 0 Z " fill="#ABABAB" transform="translate(8,139)"/>
<path d="M0 0 C0.66 0.33 1.32 0.66 2 1 C1.01 2.32 0.02 3.64 -1 5 C-0.01 5.66 0.98 6.32 2 7 C-0.31 7 -2.62 7 -5 7 C-1.125 1.125 -1.125 1.125 0 0 Z " fill="#C9C9C9" transform="translate(140,234)"/>
<path d="M0 0 C0.33 0 0.66 0 1 0 C1.28571429 7.42857143 1.28571429 7.42857143 -1 11 C-1.33 11 -1.66 11 -2 11 C-1.85892253 9.54119891 -1.71197585 8.08296449 -1.5625 6.625 C-1.48128906 5.81289062 -1.40007812 5.00078125 -1.31640625 4.1640625 C-1 2 -1 2 0 0 Z " fill="#CFCFD0" transform="translate(229,179)"/>
<path d="M0 0 C-2.90092502 1.93395001 -3.89674737 2.30131941 -7.1875 2.625 C-8.445625 2.74875 -9.70375 2.8725 -11 3 C-7.6562111 -0.84535724 -4.83651161 -1.55459302 0 0 Z " fill="#E0E0E0" transform="translate(158,177)"/>
<path d="M0 0 C-2.55068845 2.35448165 -3.71017358 2.98327924 -7.25 3.1875 C-8.1575 3.125625 -9.065 3.06375 -10 3 C-9 1 -9 1 -5.5625 -0.1875 C-2 -1 -2 -1 0 0 Z " fill="#D7D7D7" transform="translate(212,76)"/>
<path d="M0 0 C0.66 0 1.32 0 2 0 C2 2.97 2 5.94 2 9 C1.34 7.68 0.68 6.36 0 5 C-0.99 5.495 -0.99 5.495 -2 6 C-1.49396008 3.83125748 -1.00016187 2.00032373 0 0 Z " fill="#B6B7B6" transform="translate(64,221)"/>
<path d="M0 0 C0.66 0 1.32 0 2 0 C1.67 4.62 1.34 9.24 1 14 C0.67 14 0.34 14 0 14 C-0.19456705 12.04235617 -0.38044247 10.08384679 -0.5625 8.125 C-0.66691406 7.03445312 -0.77132812 5.94390625 -0.87890625 4.8203125 C-1 2 -1 2 0 0 Z " fill="#D8D8D8" transform="translate(66,217)"/>
<path d="M0 0 C0.66 0.33 1.32 0.66 2 1 C-0.38957269 4.24299151 -2.2047869 6.50902342 -6 8 C-4.55746343 4.63408134 -2.66735273 2.48952921 0 0 Z " fill="#B1B1B1" transform="translate(81,105)"/>
<path d="M0 0 C2.31 0 4.62 0 7 0 C5.8125 1.5 5.8125 1.5 4 3 C1.3125 3.1875 1.3125 3.1875 -1 3 C-0.67 2.01 -0.34 1.02 0 0 Z " fill="#E4E5E5" transform="translate(176,226)"/>
<path d="M0 0 C0.33 0.99 0.66 1.98 1 3 C-0.65 4.65 -2.3 6.3 -4 8 C-4.66 7.67 -5.32 7.34 -6 7 C-4.02 4.69 -2.04 2.38 0 0 Z " fill="#F3F3F3" transform="translate(262,199)"/>
<path d="M0 0 C0.66 0 1.32 0 2 0 C0.34832443 3.5786304 -1.78286492 6.74820188 -4 10 C-4.33 9.01 -4.66 8.02 -5 7 C-4.07421875 5.17578125 -4.07421875 5.17578125 -2.6875 3.3125 C-2.23761719 2.68988281 -1.78773438 2.06726563 -1.32421875 1.42578125 C-0.88722656 0.95527344 -0.45023438 0.48476562 0 0 Z " fill="#E9E9E9" transform="translate(189,192)"/>
<path d="M0 0 C0.33 0 0.66 0 1 0 C1.125 5.75 1.125 5.75 0 8 C-0.99 8 -1.98 8 -3 8 C-1.125 2.25 -1.125 2.25 0 0 Z " fill="#ABABAB" transform="translate(226,186)"/>
<path d="M0 0 C0.33 0.66 0.66 1.32 1 2 C0.67 2.66 0.34 3.32 0 4 C0.99 4.33 1.98 4.66 3 5 C2 6 2 6 -0.5625 6.0625 C-1.7690625 6.0315625 -1.7690625 6.0315625 -3 6 C-1.125 1.125 -1.125 1.125 0 0 Z " fill="#565657" transform="translate(125,99)"/>
<path d="M0 0 C0.99 0.33 1.98 0.66 3 1 C2.67 3.64 2.34 6.28 2 9 C1.67 9 1.34 9 1 9 C1 7.02 1 5.04 1 3 C0.34 2.67 -0.32 2.34 -1 2 C-0.67 1.34 -0.34 0.68 0 0 Z " fill="#F9F9F9" transform="translate(67,214)"/>
<path d="M0 0 C0.99 0.33 1.98 0.66 3 1 C-0.465 3.97 -0.465 3.97 -4 7 C-2.92598892 4.08482708 -2.22189824 2.22189824 0 0 Z " fill="#D7D7D7" transform="translate(69,86)"/>
</svg>
